<?xml version="1.0" standalone="no"?>
<!DOCTYPE svg PUBLIC "-//W3C//DTD SVG 1.1//EN" "http://www.w3.org/Graphics/SVG/1.1/DTD/svg11.dtd" >
<!--
2013-9-30: Created.
-->
<svg>
<metadata>
Created by iconfont
</metadata>
<defs>

<font id="iconfont" horiz-adv-x="1024" >
  <font-face
    font-family="iconfont"
    font-weight="500"
    font-stretch="normal"
    units-per-em="1024"
    ascent="896"
    descent="-128"
  />
    <missing-glyph />
    
    <glyph glyph-name="x" unicode="x" horiz-adv-x="1001"
d="M281 543q-27 -1 -53 -1h-83q-18 0 -36.5 -6t-32.5 -18.5t-23 -32t-9 -45.5v-76h912v41q0 16 -0.5 30t-0.5 18q0 13 -5 29t-17 29.5t-31.5 22.5t-49.5 9h-133v-97h-438v97zM955 310v-52q0 -23 0.5 -52t0.5 -58t-10.5 -47.5t-26 -30t-33 -16t-31.5 -4.5q-14 -1 -29.5 -0.5
t-29.5 0.5h-32l-45 128h-439l-44 -128h-29h-34q-20 0 -45 1q-25 0 -41 9.5t-25.5 23t-13.5 29.5t-4 30v167h911zM163 247q-12 0 -21 -8.5t-9 -21.5t9 -21.5t21 -8.5q13 0 22 8.5t9 21.5t-9 21.5t-22 8.5zM316 123q-8 -26 -14 -48q-5 -19 -10.5 -37t-7.5 -25t-3 -15t1 -14.5
t9.5 -10.5t21.5 -4h37h67h81h80h64h36q23 0 34 12t2 38q-5 13 -9.5 30.5t-9.5 34.5q-5 19 -11 39h-368zM336 498v228q0 11 2.5 23t10 21.5t20.5 15.5t34 6h188q31 0 51.5 -14.5t20.5 -52.5v-227h-327z" />
    

    
    <glyph glyph-name="lianjie" unicode="&#58898;" d="M607.934444 478.143147c-6.179746 6.1777-12.766768 11.746532-19.554358 16.910135l-0.01228-0.011256c-6.986111 6.719028-16.47216 10.857279-26.930349 10.857279-21.464871 0-38.864146-17.400299-38.864146-38.864146 0-9.497305 3.411703-18.196431 9.071609-24.947182l-0.001023 0c0.001023-0.001023 0.00307-0.00307 0.005117-0.004093 2.718925-3.242857 5.953595-6.03853 9.585309-8.251941 3.664459-3.021823 7.261381-5.997598 10.624988-9.361205l3.203972-3.204995c40.279379-40.229237 28.254507-109.539812-12.024871-149.820214L371.157763 99.616044c-40.278355-40.229237-105.761766-40.229237-146.042167 0l-3.229554 3.231601c-40.281425 40.278355-40.281425 105.809861 0 145.991002l75.93546 75.909877c9.742898 7.733125 15.997346 19.668968 15.997346 33.072233 0 23.312962-18.898419 42.211381-42.211381 42.211381-8.797363 0-16.963347-2.693342-23.725354-7.297197-0.021489 0.045025-0.044002 0.088004-0.066515 0.134053l-0.809435-0.757247c-2.989077-2.148943-5.691629-4.669346-8.025791-7.510044l-78.913281-73.841775c-74.178443-74.229608-74.178443-195.632609 0-269.758863l3.203972-3.202948c74.178443-74.127278 195.529255-74.127278 269.707698 0l171.829484 171.880649c74.076112 74.17435 80.357166 191.184297 6.282077 265.311575L607.934444 478.143147zM855.61957 730.195743l-3.203972 3.203972c-74.17742 74.178443-195.528232 74.178443-269.706675 0L410.87944 561.520089c-74.178443-74.178443-78.263481-181.296089-4.085038-255.522628l3.152806-3.104711c3.368724-3.367701 6.865361-6.54302 10.434653-9.588379 2.583848-2.885723 5.618974-5.355985 8.992815-7.309476 0.025583-0.020466 0.052189-0.041956 0.077771-0.062422l0.011256 0.010233c5.377474-3.092431 11.608386-4.870938 18.257829-4.870938 20.263509 0 36.68962 16.428158 36.68962 36.68962 0 5.719258-1.309832 11.132548-3.645017 15.95846l0 0c-4.850471 10.891048-13.930267 17.521049-20.210297 23.802102l-3.15383 3.102664c-40.278355 40.278355-24.982998 98.79612 15.295358 139.074476l171.930791 171.830507c40.179095 40.280402 105.685018 40.280402 145.965419 0l3.206018-3.152806c40.279379-40.281425 40.279379-105.838513 0-146.06775l-75.686796-75.737962c-10.296507-7.628748-16.97358-19.865443-16.97358-33.662681 0-23.12365 18.745946-41.87062 41.87062-41.87062 8.048303 0 15.563464 2.275833 21.944801 6.211469 0.048095-0.081864 0.093121-0.157589 0.141216-0.240477l1.173732 1.083681c3.616364 2.421142 6.828522 5.393847 9.529027 8.792247l79.766718 73.603345C929.798013 534.665465 929.798013 656.018324 855.61957 730.195743z"  horiz-adv-x="1024" />

    
    <glyph glyph-name="tishi" unicode="&#59179;" d="M512-118.13445518000003c-279.80189469 0-507.46778851 227.62870557-507.46778851 507.46778851 0 279.80189469 227.66393571 507.46778851 507.46778851 507.46778851 279.83908181 0 507.46778851-227.62870557 507.46778851-507.46778851S791.83908181-118.13445518000003 512-118.13445518000003zM512 823.98334407c-239.67921152 0-434.65001074-194.9688411-434.65001074-434.65001074 0-239.64398137 194.9688411-434.65001074 434.65001074-434.65001074 239.64398137 0 434.65001074 194.9688411 434.65001074 434.65001074S751.64398137 823.98334407 512 823.98334407zM457.38617742 620.65728853c0-30.16247182 24.45135075-54.61382258 54.61382258-54.61382258s54.61382258 24.45135075 54.61382258 54.61382258-24.45135075 54.61382258-54.61382258 54.61382258S457.38617742 650.81976035 457.38617742 620.65728853zM512 92.72888889000001c-20.09852814 0-36.40986738 16.27415211-36.40986738 36.40986738L475.59013262 456.81777778c0 20.09852814 16.31133923 36.40986738 36.40986738 36.40986737s36.40986738-16.31133923 36.40986738-36.40986737l0-327.67902151C548.40986738 109.00304099000004 532.09852814 92.72888889000001 512 92.72888889000001z"  horiz-adv-x="1024" />

    
    <glyph glyph-name="icon1460357101473" unicode="&#58890;" d="M751.036141 733.96458 272.962835 733.96458l0-617.511056 478.073306 0L751.036141 733.96458zM561.799196 783.763776c0 5.477758-4.482081 9.959839-9.959839 9.959839l-99.598392 0c-5.477758 0-9.959839-4.482081-9.959839-9.959839l0-9.959839c0-5.477758 4.482081-9.959839 9.959839-9.959839l99.598392 0c5.477758 0 9.959839 4.482081 9.959839 9.959839L561.799196 783.763776zM512-3.064546c21.912056 0 39.839357 17.927301 39.839357 39.839357s-17.927301 39.839357-39.839357 39.839357c-21.912056 0-39.839357-17.927301-39.839357-39.839357S490.087944-3.064546 512-3.064546zM751.036141-62.823582 272.962835-62.823582c-32.867572 0-59.759035 26.891464-59.759035 59.759035L213.2038 773.803937c0 32.867572 26.891464 59.759035 59.759035 59.759035l478.073306 0c32.867572 0 59.759035-26.891464 59.759035-59.759035l0-776.868483C810.795177-35.932118 783.903713-62.823582 751.036141-62.823582z"  horiz-adv-x="1024" />

    
    <glyph glyph-name="weixin" unicode="&#58888;" d="M692.699238 559.112294c11.619123 0 23.117414-0.831898 34.517504-2.108006C696.19497 701.450035 541.769728 808.772403 365.488742 808.772403 168.405197 808.772403 6.977229 674.464461 6.977229 503.892582c0-98.493235 53.707366-179.306803 143.459123-242.033357l-35.857101-107.840102 125.329408 62.837146c44.84311-8.861798 80.827085-18.002022 125.578138-18.002022 11.250688 0 22.40215 0.561766 33.469645 1.428582-7.001702 23.95351-11.06647 49.054208-11.06647 75.120947C387.891917 432.023757 522.3936 559.112294 692.699238 559.112294zM497.405542 663.593882c30.611456 0 55.425536-24.815206 55.425536-55.427379s-24.814182-55.426355-55.425536-55.426355c-30.613504 0-55.427584 24.815206-55.427584 55.426355S466.794086 663.593882 497.405542 663.593882zM246.567526 551.622656c-30.611456 0-55.427584 24.815206-55.427584 55.426355 0 30.611149 24.81623 55.426355 55.427584 55.426355 30.613504 0 55.428608-24.815206 55.428608-55.426355C301.996134 576.438886 277.18103 551.622656 246.567526 551.622656zM1017.379942 278.544179c0 143.330406-143.423283 260.165325-304.515686 260.165325-170.58089 0-304.924979-116.834918-304.924979-260.165325 0-143.57801 134.34409-260.158157 304.924979-260.158157 35.697459 0 71.712154 9.0112 107.569254 17.99895l98.340659-53.861683-26.969293 89.592525C963.769856 126.102323 1017.379942 197.690778 1017.379942 278.544179zM619.184947 318.724301c-21.799322 0-39.469466 17.673523-39.469466 39.471002 0 21.799526 17.671168 39.468954 39.469466 39.468954s39.469466-17.670451 39.469466-39.468954C658.656563 336.3968 640.983347 318.724301 619.184947 318.724301zM816.270541 316.485325c-21.80137 0-39.47049 17.672499-39.47049 39.468954 0 21.80055 17.670144 39.468954 39.47049 39.468954 21.798298 0 39.469466-17.669427 39.469466-39.468954C855.741133 334.157824 838.068941 316.485325 816.270541 316.485325z"  horiz-adv-x="1024" />

    
    <glyph glyph-name="yanzhengma1" unicode="&#58901;" d="M874.436756 769.379467c-9.084152-0.325264-17.959206-0.441429-26.694861-0.441429-229.589745 0-330.746773 101.854022-331.606398 102.80658l-22.884628 24.255383L470.180374 871.721384c-0.906092-1.068724-100.065071-102.80658-331.559932-102.80658-8.735655 0-17.610709 0.116166-26.787794 0.441429L79.608304 770.424957l0-461.897765c0-120.951651 41.70346-297.360771 402.258332-432.321997L493.134702-128l11.268066 4.205196c360.554872 134.984458 402.258332 311.370346 402.258332 432.321997L906.6611 770.424957 874.436756 769.379467 874.436756 769.379467zM457.704186 189.039229l-207.750607 189.605536 55.178673 46.001588 110.473511-83.918049c0 0 152.479002 162.515712 299.753783 238.395099l21.072445-24.371548C736.431991 554.751855 552.332706 397.626228 457.704186 189.039229L457.704186 189.039229zM457.704186 189.039229"  horiz-adv-x="1024" />

    
    <glyph glyph-name="shuoming" unicode="&#58978;" d="M912.91376 552.842365c-21.92334 51.646695-53.300437 98.023109-93.260414 137.841864-39.95486 39.811591-86.485802 71.071001-138.30135 92.909403-53.652471 22.613082-110.629823 34.077731-169.348926 34.077731s-115.696455-11.465673-169.348926-34.077731c-51.814525-21.837378-98.34649-53.096789-138.300327-92.909403-39.959977-39.818754-71.337074-86.195169-93.260414-137.841864-22.705184-53.490781-34.217931-110.297233-34.217931-168.842365s11.512747-115.352608 34.217931-168.842365c21.92334-51.646695 53.300437-98.024133 93.260414-137.841864 39.953837-39.811591 86.485802-71.071001 138.300327-92.909403 53.653494-22.613082 110.629823-34.077731 169.348926-34.077731 75.714988 0 150.287911 19.685262 215.655753 56.929255 12.277193 6.994633 16.558912 22.617175 9.564279 34.894369-6.992587 12.27617-22.617175 16.557889-34.894369 9.564279-57.664024-32.853798-123.477025-50.219114-190.325663-50.219114-211.715835 0-383.95881 171.590074-383.95881 382.503599 0 210.912501 172.243998 382.503599 383.95881 382.503599 211.716858 0 383.959833-171.590074 383.959833-382.503599 0-71.915269-20.137585-141.981336-58.233009-202.624347-7.516545-11.964047-3.910241-27.756465 8.053806-35.27301 11.963023-7.516545 27.757489-3.910241 35.27301 8.053806 43.226527 68.806316 66.073957 148.285204 66.073957 229.842527C947.130668 442.545133 935.617921 499.351585 912.91376 552.842365zM575.113391 579.18046c0 30.162374-24.452051 54.614425-54.614425 54.614425-30.162374 0-54.614425-24.452051-54.614425-54.614425 0-30.163397 24.452051-54.615448 54.614425-54.615448C550.661339 524.565012 575.113391 549.017063 575.113391 579.18046zM460.405497 142.777762c5.787074-5.565006 13.439725-8.572647 21.281697-8.572647 2.439679 0 4.898802 0.291656 7.324154 0.887249l93.427221 22.955906c16.465787 4.045323 26.534579 20.673823 22.489256 37.13961-4.046347 16.465787-20.668707 26.536626-37.13961 22.488232l-46.294546-11.374594 47.55532 232.397845c2.121416 10.365566-1.2444 21.093399-8.907284 28.388899s-18.545244 10.131217-28.791078 7.505288l-90.076756-23.084849c-16.424852-4.20906-26.327861-20.936826-22.117778-37.361678s20.939896-26.327861 37.360655-22.117778l42.540879 10.902827-47.446844-231.870817C449.498576 160.747881 452.81834 150.073262 460.405497 142.777762z"  horiz-adv-x="1025" />

    
    <glyph glyph-name="coupon" unicode="&#58892;" d="M1005.725 513.886V717.094H18.275v-203.208c73.18 0 132.51-58.15 132.51-129.887 0-71.73-59.33-129.88-132.51-129.88v-203.213h987.45V254.11900000000003c-73.182 0-132.518 58.15-132.518 129.88 0 71.738 59.329 129.887 132.518 129.887zM654.684 404.034v-47.575H543.6v-66.187h111.082v-47.881H543.6v-95.15h-60.676v95.15H368.418v47.881h114.507V356.46000000000004H368.418v47.575h96.455L346.95 619.6600000000001h69.384l82.458-168.044c4.561-9.36 9.75-21.25 15.559-35.685h1.246c4.148 11.59 9.54 23.992 16.18 37.209l82.764 166.52h65.038L560.092 404.034h94.592z"  horiz-adv-x="1024" />

    
    <glyph glyph-name="yinxingka" unicode="&#58880;" d="M1082.017 731.615h-867.922c-27.469 0-49.709-22.241-49.709-49.654v-131.698h967.312v131.698c0.028 27.413-22.212 49.654-49.681 49.654v0zM962.654 254.99699999999996c-6.611-0.111-9.239-0.028-10.317 0.082-0.111-0.498-0.304-1.355-0.304-1.355l-2.352-10.955c0 0-5.644-23.292-5.947-24.398 5.753 0.055 8.161 0.055 9.102-0.028 0.277 1.079 1.604 7.552 1.632 7.552 0 0 1.133 4.758 1.189 4.979 0 0 0.36 0.498 0.692 0.665h0.553c4.979 0 10.596 0 14.993 3.237 2.933 2.242 5.034 5.505 5.948 9.46 0.249 0.995 0.414 2.157 0.414 3.319 0 1.523-0.304 3.015-1.189 4.205-2.242 3.155-6.694 3.182-11.868 3.209-0.028 0.055-2.544 0.028-2.544 0.028v0zM968.491 243.601c-0.582-2.406-2.103-4.48-4.122-5.449-1.715-0.858-3.734-0.913-5.837-0.913h-1.384l0.111 0.581c0 0 2.544 10.955 2.517 10.898l0.082 0.582 0.055 0.442 0.995-0.111c0 0 5.2-0.498 5.284-0.498 2.075-0.83 2.876-2.876 2.297-5.532v0zM972.919 179.67499999999995h-1.964l7.414 24.48h2.49l0.719 2.517 0.083-2.821c-0.083-1.715 1.272-3.292 4.869-2.987h4.122l1.44 4.731h-1.576c-0.858 0-1.3 0.221-1.272 0.665l-0.055 2.876h-7.663c-2.517-0.055-9.903-0.248-11.369-0.637-1.799-0.471-3.762-1.825-3.762-1.825l0.747 2.544h-7.22l-1.494-5.062-7.495-24.814h-1.465l-1.466-4.675h14.329l-0.498-1.604h7.054l0.498 1.604h1.936l1.604 5.007zM963.956 179.62h-5.727l1.688 5.478h5.698l-1.66-5.478zM967.164 190.24199999999996c0 0-1.771-0.221-2.933-0.498-1.162-0.36-3.347-1.465-3.347-1.465l1.964 6.472h5.727l-1.411-4.508zM967.081 199.17700000000002c-1.162-0.331-3.292-1.272-3.292-1.272l1.852 6.251h5.698l-1.355-4.565c0.028 0-1.715-0.111-2.904-0.414v0zM940.747 187.00599999999997c-0.111-0.36-0.249-0.553-0.471-0.692-0.249-0.138-0.582-0.192-1.133-0.192h-1.604l0.111 2.71h-6.557l-0.277-13.168c-0.028-0.94 0.083-1.522 0.747-1.908 0.665-0.582 2.849-0.582 5.727-0.582h4.094l1.494 4.897-3.596-0.192-1.218-0.055c-0.166 0.055-0.331 0.138-0.498 0.304s-0.414 0.055-0.36 1.024l0.028 3.375 3.762 0.139c2.019 0 2.876 0.637 3.622 1.272 0.692 0.582 0.94 1.3 1.217 2.242l0.609 2.96h-5.2l-0.498-2.13zM972.919 228.361c-0.637-2.849-1.44-7.995 3.319-9.819 1.523-0.637 2.876-0.83 4.205-0.774 1.44 0.082 2.822 0.802 4.039 1.852-0.111-0.442-0.221-0.858-0.387-1.272l0.277-0.277c3.402 0.138 4.454 0.138 8.161 0.111l0.331 0.248c0.553 3.155 1.05 6.251 2.462 12.254 0.637 2.876 1.355 5.781 2.047 8.658l-0.139 0.331c-3.845-0.692-4.814-0.83-8.492-1.384l-0.277-0.221c-0.055-0.304-0.082-0.582-0.139-0.858-0.582 0.913-1.411 1.715-2.683 2.213-1.66 0.608-5.45-0.192-8.713-3.182-2.269-2.157-3.375-5.09-4.012-7.883v0zM980.939 228.19399999999996c0.774 3.458 1.715 6.417 4.148 6.417 1.55 0 2.323-1.384 2.185-3.79-0.139-0.608-0.304-1.245-0.471-1.992-0.248-1.024-0.526-2.019-0.719-2.987-0.277-0.719-0.582-1.44-0.94-1.882-0.582-0.885-2.075-1.466-2.904-1.466-0.248 0-1.744 0-1.771 2.213-0.055 1.079 0.166 2.242 0.471 3.486v0zM896.515 228.74699999999996c-0.609-2.876-1.44-8.049 3.319-9.959 1.523-0.581 3.596-0.774 4.979-0.774 3.514 0 7.081 0.94 9.764 3.817 2.075 2.297 3.015 5.754 3.347 7.164 1.05 4.702 0.249 6.889-0.803 8.216-1.604 2.047-4.397 2.682-7.303 2.682-1.744 0-5.919-0.166-9.184-3.182-2.379-2.185-3.458-5.145-4.121-7.966v0zM904.537 228.553c0.774 3.568 1.744 6.502 4.148 6.502 1.908 0 2.019-2.213 1.189-5.781-0.166-0.747-0.83-3.734-1.771-4.979-0.609-0.94-1.44-1.493-2.297-1.493-0.249 0-1.715 0-1.744 2.242-0.028 1.162 0.192 2.324 0.471 3.514v0zM901.079 193.64200000000005h4.37l-1.162-3.928h-4.426l-1.44-4.84h4.37l-2.573-8.521c-0.36-1.106 0.166-1.549 0.498-2.047 0.36-0.553 0.665-0.858 1.44-1.024 0.774-0.166 1.3-0.304 2.019-0.304h8.906l1.576 5.255-3.956-0.553c-0.747 0-2.876 0.111-2.656 0.802l1.882 6.391h7.912l1.466 4.758h-7.912l1.217 3.928h7.718l1.44 4.619h-19.309l-1.384-4.537zM916.902 209.19100000000003h-7.883l-1.963-3.596c-0.471-0.802-0.83-1.3-1.218-1.55-0.277-0.192-0.858-0.277-1.744-0.277h-1.05l-1.384-4.619h3.458c1.688 0 2.933 0.608 3.568 0.913 0.637 0.36 0.858 0.138 1.355 0.609l1.162 0.995h10.87l1.465 4.869h-7.939l1.3 2.656zM894.358 235.60699999999997c-1.882-0.387-3.071-0.582-4.287-0.774-1.162-0.166-2.352-0.331-4.148-0.582l-0.166-0.138-0.139-0.111c-0.192-1.355-0.331-2.544-0.582-3.928-0.221-1.44-0.582-3.071-1.079-5.393-0.442-1.771-0.609-2.406-0.83-3.015-0.249-0.609-0.553-1.244-0.94-3.015l0.083-0.138 0.111-0.138c1.715 0.055 2.876 0.111 4.012 0.138 1.162 0.028 2.352 0 4.148 0l0.166 0.138 0.192 0.139c0.277 1.604 0.331 2.019 0.498 2.822s0.442 1.936 1.106 5.034c0.331 1.44 0.637 2.876 1.023 4.343 0.36 1.494 0.665 2.904 1.05 4.343l-0.055 0.192-0.166 0.083zM837.623 218.26300000000003c4.287 0 8.3 0.886 10.955 2.572 4.731 2.765 5.976 7.137 7.054 10.955l0.526 1.963c0 0 4.565 18.423 5.338 20.802 0 0.138 0.028 0.192 0.055 0.248-6.251-0.055-8.049 0-8.631 0.166-0.277-1.079-4.454-20.498-4.48-20.498-0.885-3.983-1.604-6.749-3.818-8.575-1.3-1.05-2.765-1.576-4.454-1.576-2.794 0-4.37 1.384-4.647 4.012l-0.083 0.885 0.83 5.284c0 0 4.397 17.731 5.2 20.055 0.028 0.138 0.055 0.192 0.083 0.248-8.63-0.082-10.152 0-10.263 0.166-0.028-0.192-0.277-1.3-0.277-1.3l-4.508-19.944-0.414-1.715-0.719-5.532c0-1.66 0.331-2.96 0.968-4.094 2.102-3.596 7.939-4.122 11.286-4.122v0zM894.413 241.52599999999995c-1.715 1.024-4.758 0.665-6.75-0.719-2.047-1.384-2.297-3.319-0.582-4.343 1.715-0.968 4.731-0.665 6.75 0.719 2.019 1.411 2.268 3.347 0.582 4.343v0zM857.9 218.62199999999996l0.166-0.277c3.652 0.166 4.731 0.166 7.855 0.111l0.277 0.277c0.387 2.047 0.498 2.517 1.328 6.667 0.471 1.992 1.3 6.307 1.715 7.827 0.774 0.36 1.576 0.665 2.297 0.665 0.248 0 0.471-0.028 0.581-0.082l-17.87-76.817c-1.992-8.521 3.263-15.435 11.784-15.435h3.292c-8.547 0-13.748 6.915-11.784 15.435l14.329 61.382c2.462 0.111 3.622 0.082 6.223 0.055l0.387 0.277c0.582 3.181 0.692 4.039 1.715 8.684l0.526 2.103c0.94 4.205 1.411 6.335 0.665 8.077-0.719 1.936-2.602 2.434-4.205 2.434-0.083 0-0.139 0-0.221 0l8.906 38.312c1.799 7.607 8.852 14.025 16.46 15.214h-3.347c-7.58-1.19-14.632-7.58-16.46-15.214l-9.074-38.92c-0.442-0.138-0.83-0.331-1.272-0.526-0.637-0.36-1.3-0.719-1.908-1.106l0.581 2.103-0.331 0.414c-3.817-0.803-4.676-0.913-8.216-1.384l-0.277-0.221c-0.471-3.402-0.774-5.948-2.297-12.641-0.608-2.462-1.218-4.951-1.825-7.414v0zM977.73 194.779h8.272l-1.218-3.818h-8.353l-1.245-4.177h7.303l-5.505-7.772c-0.387-0.582-0.692-0.774-1.133-0.94-0.387-0.166-0.885-0.442-1.494-0.442h-2.019l-1.411-4.591h5.311c2.765 0 4.37 1.272 5.588 2.904l3.817 5.2 0.774-5.255c0.192-0.996 0.858-1.576 1.384-1.798 0.553-0.248 1.079-0.692 1.825-0.747 0.83-0.028 1.411-0.055 1.825-0.055h2.602l1.576 5.09h-0.968c-0.609 0-1.66 0.083-1.771 0.304-0.166 0.248-0.192 0.582-0.277 1.106l-0.83 5.283h-3.375l1.494 1.744h8.381l1.272 4.205h-7.718l1.218 3.817h7.69l1.44 4.731h-22.932l-1.522-4.786zM164.385 86.03899999999999c0-27.413 22.297-49.654 49.709-49.654h867.923c27.442 0 49.709 22.241 49.709 49.654v373.493h-967.339v-373.493zM798.481 156.909l28.272 121.325c1.963 8.492 10.428 15.435 18.949 15.435h57.288c0.582 0.055 1.162 0.111 1.744 0.111h69.736c0.83 0 1.576-0.055 2.185-0.192h52.613c8.464 0 13.748-6.943 11.756-15.435l-28.244-121.325c-1.744-7.58-8.741-13.943-16.348-15.159-0.192 0-0.36-0.028-0.553-0.028h-60.664c-8.492 0-13.747 6.914-11.756 15.435l3.734 15.988h1.798l1.604 5.393-2.212-0.221 2.794 11.784h7.495c1.549 0 2.656 0.028 3.375 0.083 0.747 0.082 1.632 0.414 2.544 0.858 0.94 0.526 1.466 1.079 1.825 1.715 0.471 0.637 1.19 1.992 1.771 4.122l3.762 12.392-10.955-0.055c0 0-3.347-0.553-4.869-1.079-0.304-0.111-0.582-0.277-0.913-0.498l2.544 10.927c0.304 0 0.582 0 0.885 0l0.414 0.277c0.526 3.182 0.637 4.039 1.687 8.684l0.498 2.103c0.858 3.817 1.355 5.891 0.885 7.523l9.626 41.216c1.771 7.607 8.825 14.025 16.432 15.214h-2.794c-7.552-1.189-14.605-7.58-16.46-15.214l-8.991-38.7c-0.692 0.304-1.523 0.415-2.269 0.415-1.079 0-3.071-0.304-4.925-1.162-0.609-0.36-1.272-0.719-1.882-1.106l0.582 2.103-0.304 0.415c-3.873-0.803-4.676-0.913-8.243-1.384l-0.277-0.221c-0.442-3.402-0.747-5.948-2.297-12.641-0.582-2.434-1.162-4.951-1.744-7.414l0.192-0.304c3.596 0.166 4.675 0.166 7.827 0.111l0.249 0.277c0.414 2.047 0.471 2.517 1.328 6.667 0.442 1.992 1.3 6.307 1.715 7.827 0.747 0.36 1.576 0.665 2.297 0.665 1.715 0 1.549-1.523 1.494-2.157-0.083-1.024-0.692-4.343-1.384-7.274l-0.471-1.852c-0.331-1.384-0.637-2.738-0.968-4.039l0.166-0.248c1.744 0.082 2.904 0.111 4.039 0.138l-2.185-9.322h-6.057l-9.46-31.423c-0.36-1.19-0.582-2.047-0.582-2.602-0.028-0.582 0.692-1.133 1.189-1.576 0.582-0.471 1.411-0.36 2.213-0.471 0.83-0.055 2.019-0.111 3.679-0.111h0.609l-3.734-16.016c-1.992-8.492 3.236-15.407 11.784-15.407h-59.806c-0.582-0.055-1.189-0.083-1.744-0.083h-60.691c-8.492 0.138-13.748 7.054-11.812 15.518v0zM925.228 180.173l2.961 9.793h0.221l-2.794-11.977c-0.331 0.083-0.553 0.277-0.609 0.443-0.192 0.277-0.028 0.747 0.221 1.744v0zM929.433 194.36300000000006v0zM941.19 196.60400000000004l-0.665-2.213c-0.083-0.055-0.36 0.111-1.494-0.028h-6.777l0.553 2.242h8.381zM933.639 200.36599999999999l0.83 3.623h9.018l-0.774-2.656c0 0-5.255 0.055-6.141-0.111-1.106-0.192-2.13-0.526-2.932-0.858v0zM436.248 368.66200000000003c0 8.492 6.915 15.324 15.435 15.324h29.571c8.547 0 15.462-6.833 15.462-15.324v-44.895c0-8.464-6.915-15.353-15.462-15.353h-29.571c-8.521 0-15.435 6.889-15.435 15.353v44.895zM330.883 368.66200000000003c0 8.492 6.915 15.324 15.435 15.324h29.571c8.521 0 15.435-6.833 15.435-15.324v-44.895c0-8.464-6.915-15.353-15.435-15.353h-29.598c-8.521 0-15.435 6.889-15.435 15.353v44.895h0.028zM224.881 368.66200000000003c0 8.492 6.915 15.324 15.435 15.324h29.571c8.521 0 15.435-6.833 15.435-15.324v-44.895c0-8.464-6.914-15.353-15.435-15.353h-29.598c-8.521 0-15.435 6.889-15.435 15.353v44.895h0.028zM996.126 206.25699999999995c-0.192-0.277-0.414-0.471-0.609-0.526-0.277-0.138-0.582-0.166-1.079-0.166h-0.885l-1.44-4.565 4.731-0.055c2.822 0 4.508 1.3 5.45 2.987l20.388 35.739-0.304 0.36c-3.818-0.747-4.454-0.886-7.912-1.355l-0.248-0.248c-0.055-0.028-0.055-0.111-0.082-0.166v0.055c-2.602-5.976-2.517-4.675-4.619-9.35 0 0.221 0 0.36-0.028 0.581l-0.526 10.124-0.331 0.36c-3.983-0.747-4.039-0.885-7.69-1.355l-0.304-0.248c-0.028-0.138-0.028-0.277-0.055-0.415l0.028-0.055c0.471-2.323 0.387-1.798 0.774-5.478 0.248-1.744 0.526-3.596 0.692-5.394 0.36-2.933 0.582-4.426 0.995-8.963-2.462-4.039-3.043-5.588-5.393-9.156l-1.549-2.71z"  horiz-adv-x="1425" />

    
    <glyph glyph-name="zhifubao" unicode="&#59704;" d="M743.619048 343.36507931999995s28.444444 52.825397 60.952381 150.349206c32.507937 101.587302 36.571429 154.412698 36.571428 154.412699l-256 4.063492V749.71428532l308.825397 4.063492V822.85714332h-308.825397V981.33333332h-150.349206v-158.47619H146.285714v-69.079366l288.507937 4.063493v-105.650794H203.174603v-56.888889h479.492064s-4.063492-44.698413-24.380953-101.587302-36.571429-105.650794-36.571428-105.650793-223.492063 89.396825-341.333334 89.396825C162.539683 477.46031732 16.253968 424.63492032 4.063492 270.22222232c-12.190476-154.412698 65.015873-239.746032 182.857143-268.190476s219.428571 0 308.825397 52.825397c93.460317 48.761905 182.857143 166.603175 182.857143 166.603174l475.428571-260.063492s28.444444 48.761905 52.825397 97.52381 40.634921 101.587302 40.63492 101.587301l-503.873015 182.857143zM251.936508 83.30158731999995c-166.603175 0-203.174603 93.460317-203.174603 158.47619s36.571429 138.15873 178.793651 150.349207c142.222222 12.190476 337.269841-113.777778 337.269841-113.777778s-142.222222-195.047619-312.888889-195.047619z"  horiz-adv-x="1247" />

    
    <glyph glyph-name="tongzhi" unicode="&#59005;" d="M773.448986 11.166582999999946c-6.856001 0-13.712002 2.353553-19.340062 7.162986-12.381733 10.744479-13.81433 29.470571-3.069851 41.852304 114.607775 133.026881 164.851004 259.811732 149.194763 377.080044-8.288598 62.010992-34.689317 120.031178-78.383531 172.423303-33.25672 39.805736-64.569202 61.192365-64.876187 61.397022-13.609673 9.107225-17.293495 27.526332-8.186269 41.136005 9.107225 13.609673 27.526332 17.293495 41.238333 8.18627 1.534926-1.023284 37.349855-25.172779 75.825322-70.811232 51.061857-60.476067 83.192965-130.877985 93.118817-203.633457 8.493255-62.215649 1.125612-127.194164-21.795943-192.991306-26.400719-75.620666-73.881083-153.492555-141.110822-231.569102-5.935045-6.753672-14.223643-10.232837-22.61457-10.232837zM642.468672 129.86749299999997c-7.879285 0-15.758569 3.172179-21.591286 9.311881-11.256121 11.972419-10.64215 30.698511 1.330269 41.954632 68.560008 64.466873 101.407415 130.059358 97.723593 194.833217-5.62806 99.156191-94.244429 166.38593-95.063056 166.9999-13.098031 9.823524-15.860897 28.344959-6.037374 41.545318 9.823524 13.098031 28.344959 15.860897 41.545319 6.037374 4.604777-3.376836 111.640252-84.625562 118.905566-211.205756 4.707105-83.192965-34.382332-164.441691-116.245029-241.494953-5.935045-5.321075-13.20036-7.981613-20.568002-7.981613zM505.655641-25.67163000000005c-6.753672 0-13.507345 2.353553-18.930748 6.856001L253.211552 174.891976H91.942041c-16.372539 0-29.675227 13.302688-29.675228 29.675227v329.497352c0 7.981613 3.172179 15.553912 8.80024 21.079644 5.62806 5.525732 13.302688 8.595583 21.181973 8.595583l159.836914-1.944239L485.087639 784.666733c8.595583 8.18627 21.284301 10.539822 32.131108 5.832717 10.949136-4.707105 18.009793-15.451584 18.009793-27.321674v-759.276507c0-11.460777-6.651344-22.0006-17.088838-26.810033-3.888478-1.841911-8.18627-2.762866-12.484061-2.762866z m-384.038373 259.91406h142.236434c6.958329 0 13.609673-2.455881 18.930749-6.856001L475.980414 67.14020200000004V693.799141L284.421705 510.52903c-5.62806-5.321075-13.098031-8.288598-20.874988-8.18627L121.617268 504.082342v-269.839912z"  horiz-adv-x="1024" />

    
    <glyph glyph-name="close" unicode="&#58934;" d="M580.022857 369.37142900000003L954.368-5.002971000000002a37.741714 37.741714 0 1 0-53.365029-53.423543L526.628571 315.97714299999996 152.224914-58.426514a37.741714 37.741714 0 1 0-53.394285 53.394285L473.234286 369.37142900000003 98.830629 743.775086a37.741714 37.741714 0 1 0 53.394285 53.394285L526.628571 422.765714 901.061486 797.198629a37.741714 37.741714 0 0 0 53.365028-53.423543L580.022857 369.37142900000003z"  horiz-adv-x="1024" />

    
    <glyph glyph-name="minshengyinhang-shen" unicode="&#58889;" d="M975.68 375.89866666c-90.72 115.36-338.46400001 143.136-338.46400001 143.136l100.01600001 61.488-223.104 124.65600001L303.344 585.22666667l175.392-98.44800001C763.44 489.69066666 848 335.91466665999997 848 335.91466665999997c70.78399999-229.376-346.192-244.15999999-346.192-244.16000001C264.81600001 65.65866666 152.704 277.45066666 152.704 277.45066666l-144.704-4.592c169.232-343.168 785.792-192.64 785.792-192.63999999C1112.32 180.12266666000005 975.68 375.89866666 975.68 375.89866666z m-461.552 152.31999999l-100.016 50.848 95.424 61.60000002 100.01600001-53.98400002-95.42400001-58.464zM527.12 820.20266666c-155.904 10.86400001-475.776-8.736-515.088-201.93600001-31.36-153.776 203.728-244.15999999 368.256-261.29599999-33.6-19.93600001-67.31200001-39.53599999-100.91200001-59.472 73.248-41.664 146.496-83.216 219.744-124.76800001L700.384 290.66666665l-201.04 106.848c-35.84 8.28799999-73.80799999-4.704-97.43999999-5.04-113.904-1.68-272.048 122.976-229.60000001 231.61600001C254.848 861.19466665 807.232 827.03466665 861.44 588.47466666h154.56c-75.712 183.23200001-332.976 220.97599999-488.88 231.728z m-19.152-475.10400001l101.58400001-55.328-104.60800001-55.32799998-96.99199999 55.32799998 100.01599999 55.328z"  horiz-adv-x="1024" />

    
    <glyph glyph-name="faxian" unicode="&#59075;" d="M516.705 317.61800000000005c41.589 0 75.311 33.703 75.311 75.296s-33.719 75.296-75.311 75.296-75.314-33.703-75.314-75.296 33.722-75.296 75.314-75.296zM515.32 887.053c-276.76 0-501.115-224.356-501.115-501.115 0-276.76 224.356-501.115 501.115-501.115s501.115 224.355 501.115 501.115c0 276.759-224.357 501.115-501.115 501.115zM159.476 499.523l-9.386-27.601c-3.24-9.518-11.433-16.28-21.39-17.654-4.042-0.557-8.228-0.158-12.105 1.163-6.673 2.27-12.064 7.002-15.179 13.327-3.119 6.327-3.58 13.489-1.31 20.164l9.387 27.604c3.24 9.518 11.434 16.279 21.39 17.653 4.04 0.557 8.224 0.158 12.101-1.162 6.677-2.271 12.07-7.007 15.185-13.332 3.121-6.329 3.583-13.489 1.308-20.164zM215.418 581.437c-4.925-6.766-12.907-10.821-21.326-10.821-5.614 0-10.983 1.747-15.528 5.056-11.764 8.564-14.37 25.107-5.808 36.876 3.388 4.649 84.932 114.515 263.604 183.598 3.055 1.18 6.256 1.784 9.52 1.784 10.828 0 20.72-6.785 24.624-16.884 5.249-13.571-1.524-28.886-15.097-34.138-163.103-63.061-239.242-164.45-239.989-165.469zM605.374 282.172l-344.248-151.803 151.832 344.2 359.327 166.93-166.915-359.327z"  horiz-adv-x="1024" />

    
    <glyph glyph-name="gongshangyinhang" unicode="&#58881;" d="M800.167 347.379V120.23000000000002H548.723v73.421h171.149v83.827H548.723V504.422h171.149v76.967H548.723v73.446h251.444v-226.969H629.018v-76.941h171.149z m-576.512 0V120.23000000000002h251.417v73.421H303.923v83.827h171.149V504.422H303.923v76.967h171.149v73.446H223.655v-226.969H394.803v-76.941H223.655zM512.013 896C229.235 896 0 666.778 0 384S229.235-128 512.013-128c282.765 0 512 229.222 512 512S794.778 896 512.013 896z m0-922.445c-226.688 0-410.445 183.757-410.445 410.445S285.325 794.458 512.013 794.458 922.458 610.688 922.458 384 738.701-26.44500000000005 512.013-26.44500000000005z"  horiz-adv-x="1024" />

    
    <glyph glyph-name="yanzhengma2" unicode="&#59015;" d="M956.461791 735.131149c-2.503007 0.245593-252.410754 25.697265-426.470021 151.22419-11.270694 8.129144-26.53126 8.129144-37.818328 0C318.082452 760.828414 68.206428 735.36037 65.719794 735.131149c-16.488533-1.587148-29.083385-15.343453-29.083385-31.79924 0-6.854105 0.63752-170.214706 56.66251-353.59834 33.205263-108.727307 79.137385-201.75198 136.502907-276.489149 72.856331-94.938256 164.195619-160.368454 271.467785-194.489576a32.43676 32.43676 0 0 1 9.81453-1.521656c3.320629 0 6.624884 0.506537 9.798157 1.521656 107.272165 34.104749 198.611453 99.534947 271.467785 194.473203C849.713558 147.982612 895.629307 240.990912 928.850943 349.718219c56.023968 183.382611 56.67786 346.744235 56.67786 353.614713 0 16.438391-12.57848 30.195719-29.067012 31.798217zM719.459982 502.283963L519.490601 241.890398c-5.365194-6.985088-13.380752-11.466146-22.180161-12.399401a34.157961 34.157961 0 0 0-3.418866-0.180102c-7.622608 0-15.065114 2.699482-20.905123 7.671727l-116.349915 98.782817c-13.510712 11.466146-15.081487 31.619138-3.549849 45.031613 11.54801 13.413498 31.848359 14.983249 45.359071 3.517103l90.48892-76.81448 179.342598 233.534848c10.763135 14.034645 30.964222 16.734126 45.097104 6.03546 14.132882-10.697643 16.848737-30.751375 6.085602-44.78602z"  horiz-adv-x="1024" />

    
    <glyph glyph-name="guangdayinhang-shen" unicode="&#58887;" d="M0 671.84299999h229.083s43.264 0 51.417-12.265h-42.43v-13.019l65.236-0.807s10.583-7.34 10.583-13.069l-75.806-0.813v-12.228h83.987s9.75-4.89 7.375-15.487H67.695v-13.889l265.764 0.833s1.597-10.59 1.597-13.876H67.695v-13.826l268.236 0.805s1.599-8.165-2.473-13.861l-265.75-2.458v-13.056l261.737 1.646s0-10.617-6.598-13.874l-255.138-1.632v-12.202l247 1.619s-0.818-13.035-9.805-15.48l-237.208-0.806v-13.096l217.639 1.646s-4.82-16.279-38.277-14.646l-40.764 0.777v-12.228l66.055-0.821s27.639 0 31.833-11.403l-97.889-2.464v-12.222h114.985s10.556-8.126 10.556-13.035l-264.125-1.611V400.29999999l269.821 2.424s10.625-7.291 10.625-14.597L67.71 386.48199999v-12.265h284.556s3.222-4.063 1.597-11.445L67.71 360.34299998999995v-12.222h286.154s2.415-7.335 0-13L67.709 333.43999999000005v-13.049h283.695s2.458-8.118-4.083-14.646H67.709v-13.029l273.918 0.814s-0.861-13.084-6.556-13.868h-96.986v-13.876l83.986 0.819s-5.709-13.049-11.404-14.689l-72.583-0.819v-13.853l48.889 0.813s-7.334-15.521-71.737-13.049L0.014 225.81599999000002V671.84299999H0zM586.181 450.07099999l1.652-221.825 61.945-0.764-0.777 107.647c-3.292 50.539 16.361 57.839 16.361 57.839 43.971 27.729 61.139-15.5 61.139-15.5l0.763-149.987h61.124l-1.625 166.313c-12.986 77.445-79.111 64.409-79.111 64.409-26.043 3.286-60.349-31.805-60.349-31.805l0.862 23.675h-61.984v-0.002z m224.249 90.487l1.585-312.312h61.138l-0.777 49.77 30.153 40.771 49.763-91.306 71.709 2.45L946.598 371.79999998999995l64.347 88.854h-70.874l-69.375-90.491-3.152 169.555-57.112 0.839h-0.002v0.001zM564.944 252.88399999l-2.443 146.737c-3.251 79.104-130.432 53.012-130.432 53.012-68.416-11.443-61.124-71.749-61.124-71.749l61.124 0.819c1.654 35.868 55.431 23.639 55.431 23.639 36.736-30.152-6.487-37.499-6.487-37.499-19.568 0-83.166-17.931-83.166-17.931-39.124-14.689-36.666-56.244-36.666-56.244 0-62.763 57.015-66.868 57.015-66.868 53.013-12.236 85.638 21.98 85.638 21.98l4.097-22.813 65.18 1.591-8.166 25.327-0.001-0.001z m-60.777 52.89s-6.334-20.479-25.21-29.402c0 0-41.11-21.987-54.167 8.173 0 0-4.36 19.153 14.39 26.493 0 0 48.847 17.556 65.487 23.229 0.001 0 1.749-12.793-0.5-28.493z"  horiz-adv-x="1024" />

    
    <glyph glyph-name="guangfayinhang-shen" unicode="&#58961;" d="M379.52 250.72000000000003a2124.96 2124.96 0 0 1 131.36 226.72 1857.92 1857.92 0 0 0-129.92 336A1687.36 1687.36 0 0 0 23.52 194.39999999999998a1767.04 1767.04 0 0 0 355.84 56.32zM379.52 250.72000000000003q-15.2-22.88-30.88-45.12l-6.72-9.44q-12-16.8-24.16-33.28l-10.24-13.6q-10.72-14.08-21.6-27.84l-11.84-15.2c-7.04-8.8-14.24-17.44-21.44-26.08l-10.56-12.8-3.68-4.16-3.68-4.32-3.68-4.16-3.68-4.32-3.68-4.16-3.68-4.16-3.68-4.16-3.68-4.16-3.68-4-3.68-4.16-3.68-4-3.68-4-3.68-4-3.68-4-3.68-4-3.68-4-3.84-4-3.68-3.84-3.68-4-3.84-3.84-3.68-3.84-3.84-3.84-3.84-3.84-3.84-3.84a1687.04 1687.04 0 0 0 717.76-0.96 1751.68 1751.68 0 0 0-228.8 280.48 2120.64 2120.64 0 0 1-262.4 0.64zM640 813.92a1690.72 1690.72 0 0 0-89.44-252.48q-18.56-42.24-39.52-84.16a2124.32 2124.32 0 0 1 131.2-227.36 1845.6 1845.6 0 0 0 358.24-57.12A1684 1684 0 0 0 640 813.92zM871.04-30.879999999999995l129.28 224a1845.6 1845.6 0 0 1-358.24 57.12 1751.68 1751.68 0 0 1 228.96-281.12zM273.92 106.24000000000001l11.84 15.2q10.88 13.76 21.6 27.84l10.24 13.6q12.16 16 24.16 33.28l6.72 9.44q16 22.24 30.88 45.12a1767.04 1767.04 0 0 1-355.84-56.32l129.28-224c33.92 34.08 67.2 70.88 99.52 109.76 7.36 8.64 14.56 17.28 21.6 26.08zM550.24 561.44A1692.48 1692.48 0 0 1 640 813.92H380.8a1857.92 1857.92 0 0 1 129.92-336q20.96 41.28 39.52 83.52z"  horiz-adv-x="1024" />

    
    <glyph glyph-name="jiekuan" unicode="&#58962;" d="M970.752 568.32c0 49.152-36.864 86.016-86.016 90.112H98.304C49.152 658.432 12.288 617.472 12.288 568.32v-557.056c0-49.152 36.864-86.016 86.016-90.112h786.432c49.152 0 86.016 40.96 86.016 90.112v184.32h-262.144c-20.48 0-40.96 20.48-36.864 40.96v106.496c0 20.48 16.384 40.96 36.864 40.96h262.144V568.32z m-45.056-135.168h-217.088c-49.152 0-86.016-40.96-86.016-90.112v-106.496c0-49.152 36.864-86.016 86.016-90.112h217.088v-135.168c0-20.48-16.384-40.96-36.864-40.96H102.4c-20.48 0-40.96 20.48-36.864 40.96V568.32c0 20.48 16.384 40.96 36.864 40.96h786.432c20.48 0 40.96-20.48 36.864-40.96v-135.168zM704.512 289.792c0-36.864 32.768-65.536 69.632-65.536 36.864 0 65.536 32.768 65.536 69.632 0 36.864-28.672 65.536-65.536 65.536-16.384 0-36.864-8.192-49.152-20.48-16.384-12.288-20.48-28.672-20.48-49.152z m86.016 0c0-12.288-12.288-20.48-20.48-16.384-12.288 0-20.48 12.288-20.48 20.48 0 12.288 8.192 20.48 20.48 20.48s20.48-12.288 20.48-24.576zM733.184 838.656c8.192 4.096 16.384 4.096 24.576 0 8.192-4.096 16.384-12.288 16.384-20.48l53.248-131.072h49.152L819.2 834.56c-8.192 20.48-24.576 36.864-45.056 45.056-20.48 8.192-40.96 8.192-61.44 0L278.528 691.2h114.688l339.968 147.456z"  horiz-adv-x="1024" />

    
    <glyph glyph-name="fenxiang" unicode="&#59013;" d="M774.485 245.604c-68.859 0-128.834-37.977-160.163-94.112l-226.395 121.147c15.974 27.195 25.145 58.869 25.145 92.692 0 24.483-4.813 47.838-13.52 69.188l249.822 158.862c33.534-43.18 85.943-70.973 144.854-70.973 101.217 0 183.303 82.062 183.303 183.291 0 101.241-82.089 183.315-183.303 183.315-101.239 0-183.302-82.075-183.302-183.315 0-23.548 4.445-46.053 12.534-66.735l-250.455-159.252c-33.588 42.006-85.263 68.923-143.234 68.923-101.242 0-183.303-82.062-183.303-183.303s82.061-183.291 183.303-183.291c48.214 0 92.070 18.619 124.794 49.047l240.975-128.949c-2.767-11.953-4.353-25.68-4.353-39.776 0-0.018 0-0.036 0-0.054 0-101.263 82.061-183.325 183.302-183.325s183.303 82.061 183.303 183.328c-0.002 101.217-82.064 183.293-183.308 183.293zM794.381 831.568c69.507 0 125.869-56.349 125.869-125.867 0-69.506-56.362-125.855-125.869-125.855-69.53 0-125.865 56.349-125.865 125.855 0 69.518 56.335 125.867 125.865 125.867zM229.922 239.466c-69.505 0-125.866 56.348-125.866 125.866s56.361 125.867 125.866 125.867c69.507 0 125.868-56.348 125.868-125.867s-56.361-125.866-125.868-125.866zM774.639-63.556c-69.503 0-125.866 56.337-125.866 125.867 0 69.506 56.362 125.843 125.866 125.843 69.507 0 125.868-56.337 125.868-125.843 0-69.53-56.361-125.867-125.868-125.867z"  horiz-adv-x="1024" />

    
    <glyph glyph-name="password" unicode="&#58913;" d="M870.902289 348.098873l0.397043-13.854529-0.092098 61.616275s11.778243 60.20309-53.65803 60.20309l-73.050686 0.00307V566.6881149999999c0 59.83777-23.301682 116.093972-65.614328 158.406618-42.312646 42.312646-98.567824 65.615351-158.405595 65.615351-59.838793 0-116.094995-23.302705-158.407641-65.615351s-65.614328-98.568848-65.614328-158.406618v-110.623383l-73.04864-0.002047c-65.435249 0-53.65803-60.20309-53.65803-60.20309l-0.086981-59.284162 0.086981-292.793193s-11.774149-60.201043 53.660077-60.201044c65.430133 0 340.798486-0.021489 340.798485-0.021489h44.48717s143.024295 0.021489 208.456474 0.021489c65.436273 0 53.659054 60.201043 53.659053 60.201044l0.091074 304.316633zM546.057131 208.52311699999996c-0.004093-19.26679-0.008186-45.248508-0.008186-78.006554 0-14.128775-11.453855-25.582629-25.58263-25.582629s-25.582629 11.453855-25.582629 25.582629c0 32.758045 0.004093 58.739764 0.008186 78.010647-22.982411 9.913781-39.073885 32.768278-39.073884 59.389563 0 35.709257 28.949303 64.658561 64.660607 64.65856 35.709257 0 64.659584-28.94828 64.659584-64.65856-0.001023-26.623331-16.094544-49.479875-39.081048-59.393656zM347.622908 456.066779V566.6881149999999c0 95.313714 77.542996 172.85671 172.85671 172.85671 95.312691 0 172.854664-77.542996 172.854664-172.85671V456.070872l-73.904123 0.007163-271.807251-0.011256zM169.659905 334.24434399999996l0.004093 2.332113-0.004093 11.522416zM590.90655 456.081105l28.523609-0.00307 68.895044 0.00307h-97.418653z"  horiz-adv-x="1024" />

    
    <glyph glyph-name="lianxiren" unicode="&#58882;" d="M1101.824254 231.396573c-44.236328 63.78447-103.908763 111.797425-173.35309 139.40266 30.692165 21.605612 56.414169 50.238855 74.929945 83.846616 21.60416 38.752162 32.922422 83.161277 32.922422 128.085849 0 140.430668-108.710494 254.799567-242.451844 254.799567-19.032685 0-34.465887-15.43175-34.465887-34.465887 0-19.032685 15.43175-34.465887 34.465887-34.465888 95.677431 0 173.524425-83.334064 173.524425-185.870696S889.549119 396.858098 793.871687 396.858098c-19.032685 0-34.465887-15.43175-34.465887-34.465888v-0.171335c0-19.031233 15.43175-34.464435 34.465887-34.464435 172.152294 0 312.068958-149.347339 312.068959-332.816444 0-19.032685 15.43175-34.465887 34.464435-34.465887s34.465887 15.43175 34.465887 34.465887c0.171335 85.561417-25.203643 167.352015-73.04381 236.452221l-0.002904 0.004356m-355.964069 58.468735c-36.179236 25.550669-75.445402 45.781246-117.110256 60.184987 87.790221 53.325786 141.804251 148.31933 141.80425 251.53985C770.554179 763.969094 638.523274 896 476.144324 896S181.735921 763.969094 181.735921 601.590145c0-55.211921 15.43175-109.224498 44.751784-155.862419 24.692543-39.436049 58.468735-72.529806 98.248906-96.534105a461.998545 461.998545 0 0 1-118.997843-60.871778c-39.951506-28.292026-75.102733-62.586578-104.595554-101.678506C40.103005 105.369646 7.865922 8.320084 7.865922-93.534113c0-19.031233 15.43175-34.464435 34.465887-34.464435 19.032685 0 34.465887 15.43175 34.465888 34.464435 0 106.30745 41.494971 206.27406 116.596252 281.89225 75.102733 75.274067 174.381099 116.940373 279.661992 116.940373 3.4296-0.34267 7.030536 0 10.460136 0.685339l2.744262 0.686792c102.536632-2.05747 198.899403-43.379654 272.114548-116.938922 75.274067-75.445402 116.597704-175.581895 116.597704-281.890797 0-19.032685 15.43175-34.465887 34.465887-34.465887 19.031233 0 34.464435 15.43175 34.464436 34.465887 0 101.851293-32.232727 198.72952-93.448627 280.177449-29.321487 39.266167-64.644048 73.559267-104.594102 101.851293v-0.004356M476.314207 827.071129c124.313579 0 225.480984-101.164502 225.480984-225.479532 0-124.313579-101.165954-225.47808-225.480984-225.478081-124.313579 0-225.479532 101.16305-225.479533 225.478081-0.001452 124.313579 101.164502 225.479532 225.479533 225.479532m0 0z"  horiz-adv-x="1228" />

    
    <glyph glyph-name="tongzhi1" unicode="&#58954;" d="M770.7 567.3c-11.6 10.3-29 10.3-40.6 0-11.6-10.3-11.6-25.7 0-36 40.6-36 67.7-87.7 67.7-146.9s-27-107.9-67.7-146.5c-11.6-10.3-11.6-25.7 0-36s29-10.3 40.6 0c52.2 46.3 84.2 110.5 84.2 182.5-0.1 72-32 136.6-84.2 182.9zM710.6 491c-11 10.2-27.4 10.2-38.3 0-11-10.2-11-25.4 0-35.6 19.2-17.8 30.3-43.1 30.3-71.1 0-28-8.3-53.5-30.3-71.3-11-10.2-11-25.4 0-35.6 11-10.2 27.4-10.2 38.3 0 30.1 28 49 66.2 49 106.8 0 40.8-18.9 81.4-49 106.8zM542.7 661L359.6 555.8V213l183.1-105c34.6-21.9 64.3-4.9 64.3 34.1V623.7c0 42.3-29.7 57.2-64.3 37.3zM169.2 482.2v-195.9c0-41.6 33-73.5 76.1-73.5h76.1V555.7h-76.1c-43.1 0-76.1-31.8-76.1-73.5z"  horiz-adv-x="1024" />

    
    <glyph glyph-name="agree" unicode="&#58897;" d="M512 896C230.4 896 0 665.6 0 384s230.4-512 512-512 512 230.4 512 512S793.6 896 512 896z m315.733333-827.733333c-42.666667-42.666667-89.6-72.533333-140.8-98.133334-55.466667-21.333333-115.2-34.133333-174.933333-34.133333-59.733333 0-119.466667 12.8-174.933333 34.133333-55.466667 21.333333-102.4 55.466667-140.8 98.133334-42.666667 42.666667-72.533333 89.6-98.133334 140.8-21.333333 55.466667-34.133333 115.2-34.133333 174.933333 0 59.733333 12.8 119.466667 34.133333 174.933333 21.333333 55.466667 55.466667 102.4 98.133334 140.8 42.666667 42.666667 89.6 72.533333 140.8 98.133334 55.466667 21.333333 115.2 34.133333 174.933333 34.133333 59.733333 0 119.466667-12.8 174.933333-34.133333 55.466667-21.333333 102.4-55.466667 140.8-98.133334 42.666667-42.666667 72.533333-89.6 98.133334-140.8 21.333333-55.466667 34.133333-115.2 34.133333-174.933333 0-59.733333-12.8-119.466667-34.133333-174.933333-25.6-51.2-55.466667-102.4-98.133334-140.8z m-98.133333 512L426.666667 277.33333300000004l-157.866667 136.533334c-17.066667 17.066667-42.666667 17.066667-59.733333 0-17.066667-17.066667-17.066667-42.666667 0-59.733334L384 209.06666700000005c4.266667-4.266667 4.266667-4.266667 8.533333-4.266667 0-4.266667 4.266667-8.533333 8.533334-17.066667 17.066667-17.066667 42.666667-17.066667 59.733333 0l328.533333 328.533334c17.066667 17.066667 17.066667 42.666667 0 59.733333-17.066667 17.066667-42.666667 17.066667-59.733333 4.266667z"  horiz-adv-x="1024" />

    
    <glyph glyph-name="hongbao" unicode="&#59006;" d="M888.61481 760.495211H460.931558c-78.934828 0-143.51787-64.583041-143.51787-143.517869v-600.502687c0-78.934828 64.583041-143.51787 143.51787-143.517869H888.61481c78.934828 0 143.51787 64.583041 143.517869 143.517869V616.977342c0 78.934828-64.583041 143.51787-143.517869 143.517869z m-497.767812-73.43331c18.776921 18.776921 43.653352 29.181967 70.08456 29.181967H888.61481c26.311609 0 51.18804-10.405046 70.084559-29.181967s29.181967-43.653352 29.181967-70.084559v-67.572997c-190.878767-121.033403-435.576734-120.913805-626.335903 0v67.572997c0.119598 26.311609 10.524644 51.18804 29.301565 70.084559zM958.699369-53.60990400000003c-18.776921-18.776921-43.653352-29.181967-70.084559-29.181967H460.931558c-26.311609 0-51.18804 10.405046-70.08456 29.181967s-29.181967 43.653352-29.181966 70.084559V497.618313c96.754964-55.493576 204.871759-83.240364 313.108152-83.240364 108.116795 0 216.353189 27.746788 313.108152 83.359963v-481.143658c0-26.431208-10.285447-51.307638-29.181967-70.204158zM746.41252 322.765709l-46.523709-85.632329c-12.438215-23.202056-19.972904-38.630227-22.723663-46.284513h-0.837187c-8.132679 18.537725-31.215137 62.549872-69.247372 131.916842h-43.653352L644.634431 183.19458099999997h-66.616211v-30.856342h78.097641v-42.45737h-78.097641v-31.215137h78.097641v-61.832282H694.865686v61.832282h75.346881v31.215137h-75.346881v42.45737h75.346881V183.19458099999997h-64.583041l82.044382 139.571128h-41.261388zM268.258818 19.70380799999998L106.322822 464.370007c35.04228-6.099509 70.204158-8.969867 105.246438-8.969867 23.441252 0 46.762906 1.31558 69.964961 3.946742v44.610137c-63.387059-7.773885-128.448493-5.023125-192.792338 8.969867l-22.24527 61.234291c-8.969867 24.756833-7.773885 51.666433 3.468348 75.825275 11.242233 24.158841 31.095538 42.337772 55.852371 51.427236L519.773885 844.81196c10.883438 3.946741 22.125672 5.979911 33.607101 5.979911 37.793039 0 72.237328-21.408082 88.981079-54.417192h47.83929l-1.554777 4.305536C667.477692 858.804952 612.103714 895.043214 553.380986 895.043214 537.115627 895.043214 520.73067 892.292455 504.704508 886.432142L110.628358 743.033871c-74.150899-27.029199-112.781126-109.79117-85.751927-183.94207l201.762205-554.45737c14.710582-40.304602 45.80612-70.08456 83.120766-84.555945-13.873394 21.647279-23.082457 46.284513-26.670404 72.835319-6.219108 8.013081-11.361831 16.982948-14.83018 26.790003z"  horiz-adv-x="1048" />

    
    <glyph glyph-name="zhuce" unicode="&#58891;" d="M524.343 204.687l204.555 204.596c10.549 10.549 24.565 16.347 39.475 16.347 14.921 0 28.924-5.798 39.473-16.347l18.585-18.59c21.758-21.768 21.758-57.19 0-78.948L621.867 107.12900000000002l-156.344-58.202 58.82 155.76z m-2.55-99.508l82.052 30.569 2.207 2.21-51.163 51.152-2.244-2.257-30.851-81.674z m107.445 55.958l134.414 134.44-51.167 51.176L578.08 212.30600000000004l51.157-51.17z m157.591 157.632l16.53 16.515c8.978 8.989 8.978 23.601 0.012 32.592L784.8 386.462c-4.36 4.346-10.15 6.731-16.308 6.731-6.157 0-11.95-2.387-16.294-6.731l-16.511-16.542 51.142-51.15zM842.744 69.01599999999996c-0.04 1.374-0.238 2.762-0.707 4.839l-1.01 7.403c-7.85 57.381-27.115 110.707-55.594 157.125l-29.242-28.41a363.457 363.457 0 0 0 45.773-130.218l0.741-5.005 0.82-0.084v-6.117c0-10.812 8.814-19.622 19.634-19.622 10.703 0 19.417 8.6 19.595 19.796l-0.01 0.293zM652.931 366.83000000000004c-7.449 4.182-15.016 8.167-22.79 11.833l-8.557 4.018 7.168 6.154c48.335 41.442 76.063 101.503 76.063 164.799 0 119.728-97.409 217.119-217.123 217.119-119.73 0-217.13-97.391-217.13-217.12 0-63.295 27.717-123.354 76.054-164.798l7.176-6.154-8.542-4.018c-113.881-53.576-192.715-164.766-210.895-297.405l-1.276-9.33v-3.381c0-10.812 8.819-19.622 19.626-19.622 10.826 0 19.644 8.81 19.644 19.595l-0.264 2.326 1.321 8.91c19.12 129.14 105.63 237.635 220.41 276.438l2.292 0.779 2.197-0.998c28.396-12.912 58.467-19.466 89.387-19.466 30.907 0 60.98 6.554 89.367 19.466l2.208 0.998 2.291-0.779c15.426-5.212 30.274-11.77 44.575-19.382l26.798 30.018z m-79.08 30.83a177.098 177.098 0 0 0-48.439-18.223c-12.617-2.726-25.303-4.088-37.718-4.088-12.443 0-25.122 1.362-37.707 4.088a176.542 176.542 0 0 0-48.462 18.233c-56.824 31.503-92.123 91.26-92.123 155.962 0 98.3 79.978 178.284 178.29 178.284 98.296 0 178.266-79.984 178.266-178.284 0.002-64.699-35.278-124.457-92.106-155.972z"  horiz-adv-x="1024" />

    
    <glyph glyph-name="add" unicode="&#58899;" d="M510.352119-16.416237000000024c-220.548741 0-399.339141 178.82643-399.339141 399.403615S289.803378 782.377719 510.352119 782.377719c220.550637 0 399.341037-178.813156 399.341037-399.390341S730.902756-16.416237000000024 510.352119-16.416237000000024zM510.352119 732.455822c-192.982281 0-349.421037-156.461511-349.421037-349.468444S317.369837 33.51703699999996 510.352119 33.51703699999996s349.421037 156.463407 349.421037 349.470341S703.3344 732.455822 510.352119 732.455822zM660.104533 358.02074100000004L535.313067 358.02074100000004l0-124.81043c0-13.778489-11.174874-24.957156-24.959052-24.957156-13.784178 0-24.957156 11.178667-24.957156 24.957156l0 124.81043-124.795259 0c-13.784178 0-24.959052 11.17677-24.959052 24.966637 0 13.780385 11.17677 24.957156 24.959052 24.957156l124.795259 0 0 124.816119c0 13.778489 11.174874 24.951467 24.957156 24.951467 13.786074 0 24.959052-11.171081 24.959052-24.951467l0-124.816119 124.791467 0c13.786074 0 24.959052-11.17677 24.959052-24.957156C685.063585 369.19751099999996 673.890607 358.02074100000004 660.104533 358.02074100000004z"  horiz-adv-x="1024" />

    
    <glyph glyph-name="wode" unicode="&#58884;" d="M511.606543 299.178993c-125.663357 0-241.734091 109.83553-254.684132 270.352082C243.332862 737.5618489999999 354.927039 896 511.606543 896s268.273681-158.438151 254.684132-326.468925c-12.950041-159.877045-129.020775-270.352082-254.684132-270.352082z m-2.238279-86.653358C228.144543 212.52563499999997 0 100.61170300000003 0-37.36218599999995c0-47.963113 43.486556-65.389711 170.908561-79.938522A3361.095108 3361.095108 0 0 1 511.606543-127.21308499999998c127.901636 0 253.564993 0 342.456629 10.711762 125.663357 15.028442 169.149913 31.975409 169.149913 79.938522C1023.213085 101.41108899999995 790.591985 213.32502 509.368264 213.32502z"  horiz-adv-x="1024" />

    
    <glyph glyph-name="shoouye" unicode="&#58885;" d="M801.554219-127.99936000000002h-109.919931a22.239986 22.239986 0 0 0-22.239986 22.239986v271.99983a155.999903 155.999903 0 0 1-155.839903 155.839903h-2.719998a155.999903 155.999903 0 0 1-155.839903-155.839903v-271.99983a22.239986 22.239986 0 0 0-22.399986-22.239986h-109.919931A222.879861 222.879861 0 0 0 0.11472 94.56050100000004v303.99981a21.919986 21.919986 0 0 0 0 4.479997 149.439907 149.439907 0 0 0 45.279972 100.959937L407.154466 853.600026a150.399906 150.399906 0 0 0 209.279869 0L971.314113 509.760241a149.279907 149.279907 0 0 0 52.799967-108.639932 22.239986 22.239986 0 0 0 0-3.039998v-303.99981A222.879861 222.879861 0 0 0 801.554219-127.99936000000002z"  horiz-adv-x="1024" />

    
    <glyph glyph-name="renzheng" unicode="&#58886;" d="M80 738.4v-472.48S248.64-128 512-128s432 393.92 432 393.92V738.4c-254.08 0-432 157.6-432 157.6a686.4 686.4 0 0 0-432-157.6z m585.92-166.08h100.16L576 144.79999999999995h-119.68L265.6 571.52h106.08l144-340.64z m0 0"  horiz-adv-x="1024" />

    
    <glyph glyph-name="dunpai" unicode="&#58894;" d="M737.28 814.08C657.92 814.08 491.52 896 491.52 896s-123.52-81.92-204.8-81.92A423.84 423.84 0 0 0 122.88 855.04v-532.48C122.88 73.76 450.56-128 512-128s389.12 201.76 389.12 450.56V855.04A423.68 423.68 0 0 0 737.28 814.08zM370.24 59.68l93.12 288-121.44 34.88 300.8 325.12-84-293.6 123.36-36.16z"  horiz-adv-x="1024" />

    
    <glyph glyph-name="qianbao" unicode="&#58895;" d="M25.89261 588.799898l76.507417 76.946274h793.892458l102.399986-51.199992V446.902775l-372.443376-16.091426-13.165712-253.07425 385.462802-23.405711V-25.600014999999985l-51.199993-76.799989H102.400027l-76.799989 51.199993zM947.492478 683.593027V753.371303A142.774837 142.774837 0 0 1 804.571355 895.999854H142.921164A142.774837 142.774837 0 0 1 0.000042 753.371303V-10.971445000000017a117.028555 117.028555 0 0 1 117.028555-117.028555h789.942744a117.028555 117.028555 0 0 1 117.028555 117.028555V574.171328a117.028555 117.028555 0 0 1-76.507418 109.421699z m-895.999872 58.514277h639.999908V793.599868H61.147462a91.428558 91.428558 0 0 0 81.773702 51.199993h661.650191a91.574844 91.574844 0 0 0 91.428559-91.428558V691.199883H117.028597a117.028555 117.028555 0 0 1-65.828562-20.479997z m921.599868-563.199919H681.398802a41.252566 41.252566 0 0 0-41.10628 41.10628V368.63992900000005a41.252566 41.252566 0 0 0 41.10628 41.10628H973.092474z m0 281.599959H681.398802a92.452558 92.452558 0 0 1-92.306273-92.306272v-147.602265a92.452558 92.452558 0 0 1 92.306273-92.306272H973.092474V-10.971445000000017a65.974848 65.974848 0 0 0-65.828562-65.828562H117.028597A65.974848 65.974848 0 0 0 51.492606-10.971445000000017V574.171328a65.974848 65.974848 0 0 0 65.535991 65.828562h789.942744a65.974848 65.974848 0 0 0 65.828562-65.828562v-113.225126zM742.692507 793.599868h102.399986v-51.199992h-102.399986z m64.073134-563.199919a64.073134 64.073134 0 1 1-63.926848 63.926848 64.073134 64.073134 0 0 1 63.780562-63.780563z"  horiz-adv-x="1024" />

    
    <glyph glyph-name="jinduchaxun" unicode="&#58896;" d="M178.635293 315.2157a423.850134 423.850134 0 1 1 847.517573 0 423.850134 423.850134 0 0 1-847.517573 0zM659.120574 691.017306a34.163782 34.163782 0 0 1-34.163783-34.163782v-307.291347A34.163782 34.163782 0 0 1 659.120574 315.581088h306.560571a34.163782 34.163782 0 0 1 0 68.327565H692.736274v274.041035A34.163782 34.163782 0 0 1 659.120574 691.017306z m0 0M659.120574 895.451918a511.543265 511.543265 0 0 1-511.543265-511.543265c0-10.048171 0-19.913649 1.461552-29.779126l-89.337377 87.875825a34.163782 34.163782 0 1 1-48.231222-48.231222l144.87636-144.87636a34.346476 34.346476 0 0 1 48.413916 0l144.87636 144.87636a34.23686 34.23686 0 0 1-48.413916 48.413916l-84.95272-85.135414c0 8.952007-1.461552 18.269402-1.461553 26.856021a443.946476 443.946476 0 1 0 135.924354-319.531847 33.433006 33.433006 0 0 1-6.394291 6.211597 34.163782 34.163782 0 0 1-54.808207-27.586797 33.981088 33.981088 0 0 1 9.682783-24.480999A511.543265 511.543265 0 1 1 659.120574 895.451918z m0 0"  horiz-adv-x="1170" />

    
    <glyph glyph-name="baozhang" unicode="&#58904;" d="M721.6 752C512 814.4 512 896 512 896s0-83.2-209.6-144C116.8 697.6 116.8 732.8 116.8 732.8v-558.4s0-152 185.6-204.8C512-91.20000000000005 512-128 512-128s0 36.8 209.6 97.6c185.6 54.4 185.6 204.8 185.6 204.8V732.8s-1.6-35.2-185.6 19.2z m136-552s0-132.8-163.2-180.8C510.4-33.60000000000002 512-65.60000000000002 512-65.60000000000002s0 32-182.4 84.8c-163.2 48-163.2 180.8-163.2 180.8V689.6s0-30.4 163.2 16C512 760 512 833.6 512 833.6s0-72 184-126.4c163.2-48 163.2-16 163.2-16v-491.2zM264 374.4c41.6 62.4 73.6 137.6 97.6 227.2l35.2-9.6c-12.8-41.6-27.2-80-41.6-115.2v-329.6H320V404.8c-12.8-24-27.2-46.4-41.6-68.8l-14.4 38.4z m164.8 206.4h260.8v-176h-35.2v17.6H576v-62.4h153.6v-32h-126.4c28.8-48 72-84.8 131.2-112-9.6-12.8-17.6-25.6-24-35.2-57.6 33.6-104 84.8-134.4 144V144h-33.6V324.79999999999995c-38.4-67.2-84.8-120-142.4-155.2-8 8-16 17.6-25.6 28.8 56 30.4 102.4 75.2 134.4 128h-123.2v32h155.2v62.4H464V400h-35.2V580.8z m224-32H464v-96h190.4v96z m0 0"  horiz-adv-x="1024" />

    
    <glyph glyph-name="dui" unicode="&#58912;" d="M951.84 646.08l-14.4-12.8c-0.96-0.8-39.04-35.04-92.32-92.96a368 368 0 1 0-69.76 100.48c32 24.32 66.56 48 101.92 70.4l18.72 11.52a510.4 510.4 0 1 1 56.16-76.8zM845.12 540.3199999999999c-11.2-12.16-23.04-25.44-35.36-39.68a320 320 0 1 0-72.48 110.56c12.48 9.92 25.12 19.84 38.24 29.6a367.2 367.2 0 1 1 69.76-100.48zM505.28 353.91999999999996l-160 122.24-69.92-58.08L552.64 148.79999999999995c131.52 296.32 386.4 522.08 386.4 522.08L912 704c-224-140.8-406.72-350.08-406.72-350.08z"  horiz-adv-x="1024" />

    
    <glyph glyph-name="mima" unicode="&#58925;" d="M748.32-128H275.68a138.08 138.08 0 0 0-137.92 137.92v384a137.92 137.92 0 0 0 137.92 137.92H713.92v122.72a202 202 0 1 1-404 0v-44.48a19.68 19.68 0 1 0-39.36 0v44.48a241.44 241.44 0 0 0 482.72 0v-122.4a138.08 138.08 0 0 0 132.8-137.76v-384A138.08 138.08 0 0 0 748.32-128zM275.68 492.8a98.56 98.56 0 0 1-98.4-98.4v-384a98.56 98.56 0 0 1 98.4-98.4h472.64a98.56 98.56 0 0 1 98.4 98.4v384a98.56 98.56 0 0 1-98.4 98.4z m236.32-498.72a19.68 19.68 0 0 0-19.68 19.68V144a134.24 134.24 0 1 0 39.36 0v-129.44a19.68 19.68 0 0 0-19.68-20.48z m0 376.64a94.72 94.72 0 1 1 94.72-94.72 94.88 94.88 0 0 1-94.72 94.72z"  horiz-adv-x="1024" />

    
    <glyph glyph-name="huankuanyuqi" unicode="&#58926;" d="M1096.464235-127.604022H735.133995a24.352668 24.352668 0 0 0-24.352668 24.352669v138.59242a24.352668 24.352668 0 0 0 24.352668 24.352668h80.383604L633.56555 228.974478l-181.952049-169.676721h80.383604a24.352668 24.352668 0 0 0 24.352668-24.352668v-138.592421a24.352668 24.352668 0 0 0-24.352668-24.352668H170.666865A170.864656 170.864656 0 0 0 0.000198 43.062645V423.795824a24.352668 24.352668 0 0 0 24.352668 24.352668h1218.425368A24.352668 24.352668 0 0 0 1267.130902 423.795824v-380.733179a170.864656 170.864656 0 0 0-170.666667-170.666667z m-336.581593 48.705337h336.581593a121.96133 121.96133 0 0 1 121.763341 121.763341v356.38051H48.705535v-356.38051a121.96133 121.96133 0 0 1 121.763341-121.763341h336.581593v89.491106h-117.20959a24.352668 24.352668 0 0 0-16.631091 42.171693L616.93446 280.253674a24.352668 24.352668 0 0 0 33.26218 0l243.724672-227.48956a24.352668 24.352668 0 0 0-16.631091-42.171693h-117.803557z m483.29157 673.163186H24.352866A24.352668 24.352668 0 0 0 0.000198 618.023202V725.333333A170.666667 170.666667 0 0 0 170.666865 896h925.79737A170.864656 170.864656 0 0 0 1267.130902 725.333333v-107.310131a24.352668 24.352668 0 0 0-24.352668-24.352668zM48.705535 641.583913h1169.72003V725.333333a121.96133 121.96133 0 0 1-121.763341 121.763341H170.666865a121.96133 121.96133 0 0 1-121.763341-121.763341z"  horiz-adv-x="1267" />

    
    <glyph glyph-name="yijianfankui" unicode="&#58927;" d="M221.12016-128a19.68 19.68 0 0 0-19.68 19.68v148A222.08 222.08 0 0 0 0.00016 261.12v192a221.92 221.92 0 0 0 221.12 221.44h384a221.92 221.92 0 0 0 220.8-222.24v-192A221.92 221.92 0 0 0 604.80016 38.88h-208L234.88016-122.24a19.68 19.68 0 0 0-13.76-5.76z m0 763.2A182.4 182.4 0 0 1 39.36016 452.32v-192a182.4 182.4 0 0 1 181.76-182.08A19.68 19.68 0 0 0 240.00016 58.56v-119.68l134.72 133.6a19.68 19.68 0 0 0 13.92 5.76H604.80016a182.4 182.4 0 0 1 181.76 182.88v192A182.4 182.4 0 0 1 604.80016 635.2zM896.00016 283.36a19.68 19.68 0 0 0-9.28 36.64 182.4 182.4 0 0 1 97.92 162.08v192A182.4 182.4 0 0 1 802.88016 856.64h-384a181.76 181.76 0 0 1-171.84-123.52 19.68 19.68 0 0 0-37.28 12.64A221.12 221.12 0 0 0 419.20016 896h384A221.92 221.92 0 0 0 1024.00016 673.76v-192a221.76 221.76 0 0 0-119.04-196.96 19.36 19.36 0 0 0-8.96-1.44zM217.12016 295.52a63.04 63.04 0 1 0 62.88 63.04 63.04 63.04 0 0 0-62.88-63.04z m0 86.88A23.68 23.68 0 1 1 240.00016 358.56a23.68 23.68 0 0 1-22.88 23.68zM412.96016 295.52a63.04 63.04 0 1 0 62.88 63.04 63.04 63.04 0 0 0-62.88-63.04z m0 86.88a23.68 23.68 0 1 1 23.52-23.68 23.68 23.68 0 0 1-23.52 23.52zM608.00016 295.52a63.04 63.04 0 1 0 64 63.04 63.04 63.04 0 0 0-64-63.04z m0 86.88a23.68 23.68 0 1 1 23.52-23.68A23.68 23.68 0 0 1 608.00016 382.24z"  horiz-adv-x="1024" />

    
    <glyph glyph-name="zhinan" unicode="&#58928;" d="M329.6-121.76a16 16 0 0 0-15.04 19.36l52.48 204a16 16 0 0 0 30.08-7.68l-52.48-204a16 16 0 0 0-15.04-11.68zM694.4-121.76a16 16 0 0 0-15.04 11.68l-52.48 204a16 16 0 0 0 30.08 7.68l52.48-204a16 16 0 0 0-15.04-19.36zM512 64a416 416 0 1 0 419.04 416A418.08 418.08 0 0 0 512 64z m0 800.96A385.12 385.12 0 1 1 900 480 387.04 387.04 0 0 1 512 864.96zM512 273.6A206.24 206.24 0 1 0 720 480a208 208 0 0 0-208-206.4z m0 381.6A176 176 0 1 1 688 480a176 176 0 0 1-176 175.2zM512 775.68m-39.68 0a39.68 39.68 0 1 1 79.36 0 39.68 39.68 0 1 1-79.36 0ZM1008-128H16a16 16 0 0 0 0 31.04h992A16 16 0 0 0 1008-128z"  horiz-adv-x="1024" />

    
    <glyph glyph-name="fuwufeiyong" unicode="&#58930;" d="M734.99248 423.887106v-299.49971h142.128745L633.443669-103.058187 389.766112 124.387396h142.128746V423.887106m0 0H24.348753v-380.659578a146.681616 146.681616 0 0 1 146.087763-146.087764h264.066499m397.881307 0h263.868549a146.681616 146.681616 0 0 1 146.087763 146.087764V423.887106H734.99248M1242.538585 618.868742H24.348753V725.366325a146.681616 146.681616 0 0 0 146.285714 146.285714h925.618404a146.681616 146.681616 0 0 0 146.087763-146.087763zM1096.252871-127.406147H832.384322a24.347961 24.347961 0 0 0 0 48.695921h263.868549a121.937754 121.937754 0 0 1 121.739802 121.739803v356.311618H759.340441v-250.605838h117.780784a24.347961 24.347961 0 0 0 16.627876-41.569689L650.071544-120.873768a24.347961 24.347961 0 0 0-33.255751 0L373.138237 107.165668a24.347961 24.347961 0 0 0 16.627875 42.163541h117.780785v249.418133H48.696714v-356.311618a121.937754 121.937754 0 0 1 121.739802-121.739803h264.066499a24.347961 24.347961 0 0 0 0-48.695921H170.634467A170.831626 170.831626 0 0 0 0.000792 43.227528V423.887106a24.347961 24.347961 0 0 0 24.347961 24.347961h507.546105a24.347961 24.347961 0 0 0 24.34796-24.347961v-299.49971a24.347961 24.347961 0 0 0-24.34796-24.34796h-80.368065L633.443669-69.604485l181.916876 169.643921h-80.368065a24.347961 24.347961 0 0 0-24.347961 24.34796V423.887106a24.347961 24.347961 0 0 0 24.347961 24.347961h507.546105A24.347961 24.347961 0 0 0 1266.886545 423.887106v-380.659578a170.831626 170.831626 0 0 0-170.633674-170.633675z m146.087763 720.937173H24.348753A24.347961 24.347961 0 0 0 0.000792 618.076938V725.366325A170.831626 170.831626 0 0 0 170.634467 896h925.618404A170.831626 170.831626 0 0 0 1266.886545 725.366325v-107.289387a24.347961 24.347961 0 0 0-24.34796-24.347961z m-1193.64392 48.102069h1169.49391V725.366325a121.937754 121.937754 0 0 1-121.739803 121.739803H170.634467a121.937754 121.937754 0 0 1-121.739803-121.739803z"  horiz-adv-x="1267" />

    
    <glyph glyph-name="huankuanxinxi" unicode="&#58931;" d="M170.732689-79.077756h926.155512a122.008511 122.008511 0 0 1 121.810445 121.810445v356.518375H48.724178v-356.518375a122.008511 122.008511 0 0 1 122.008511-121.810445z m0 162.611992h207.176789a24.362089 24.362089 0 1 0 0-48.724178H170.138491a24.362089 24.362089 0 0 0 0 48.724178zM1096.888201 847.077756H170.732689a122.008511 122.008511 0 0 1-121.810445-121.810445v-83.781818h1169.974468V725.267311a122.008511 122.008511 0 0 1-122.008511 121.810445zM1243.258801 447.182979H24.362089A24.362089 24.362089 0 0 1 0 423.613153v-380.880464a170.930754 170.930754 0 0 1 170.732689-170.732689h926.155512A170.930754 170.930754 0 0 1 1267.62089 42.732689V423.613153a24.362089 24.362089 0 0 1-24.362089 23.569826z m0-404.45029a146.766731 146.766731 0 0 0-146.172534-146.172534H170.732689a146.766731 146.766731 0 0 0-146.172534 146.172534V423.613153h1218.698646zM1096.888201 896H170.732689A170.930754 170.930754 0 0 1 0 725.267311v-107.351644a24.362089 24.362089 0 0 1 24.362089-24.362089h1218.896712A24.362089 24.362089 0 0 1 1267.62089 617.915667V725.267311A170.930754 170.930754 0 0 1 1096.888201 896z m146.3706-277.29207H24.362089V725.267311a146.766731 146.766731 0 0 0 146.3706 146.3706h926.155512a146.766731 146.766731 0 0 0 146.172534-146.172534zM170.138491 34.810058h207.770987a24.362089 24.362089 0 1 1 0 48.724178H170.138491a24.362089 24.362089 0 0 1 0-48.724178z m207.770987 24.362089zM1096.888201 871.637911H170.732689a146.766731 146.766731 0 0 1-146.172534-146.172534v-107.351644h1218.698646V725.267311a146.766731 146.766731 0 0 1-146.3706 146.3706z m122.008511-230.152418H48.724178V725.267311a122.008511 122.008511 0 0 0 122.008511 121.810445h926.155512a122.008511 122.008511 0 0 0 121.810445-121.810445zM24.362089 42.732689a146.766731 146.766731 0 0 1 146.172534-146.172534h926.353578a146.766731 146.766731 0 0 1 146.172534 146.172534V423.613153H24.362089z m24.362089 356.518375h1170.172534v-356.518375a122.008511 122.008511 0 0 0-121.810445-121.810445H170.732689a122.008511 122.008511 0 0 0-121.810445 121.810445z"  horiz-adv-x="1267" />

    
    <glyph glyph-name="jiekuanxinxi" unicode="&#58932;" d="M531.997105-103.251353v138.59242h-142.156226L633.56555 262.434648l243.724671-227.489559h-142.156226v-138.592421m0 0h361.33024a146.709977 146.709977 0 0 1 146.11601 146.116009V423.795824H24.352866v-380.733179a146.709977 146.709977 0 0 1 146.11601-146.116009h361.528229m710.781129 721.076566H24.352866V725.333333a146.709977 146.709977 0 0 0 146.313999 146.313999h925.79737a146.709977 146.709977 0 0 0 146.11601-146.116009zM1096.464235-127.604022H735.133995a24.352668 24.352668 0 0 0-24.352668 24.352669v138.59242a24.352668 24.352668 0 0 0 24.352668 24.352668h80.383604L633.56555 228.974478l-181.952049-169.676721h80.383604a24.352668 24.352668 0 0 0 24.352668-24.352668v-138.592421a24.352668 24.352668 0 0 0-24.352668-24.352668H170.666865A170.864656 170.864656 0 0 0 0.000198 43.062645V423.795824a24.352668 24.352668 0 0 0 24.352668 24.352668h1218.425368A24.352668 24.352668 0 0 0 1267.130902 423.795824v-380.733179a170.864656 170.864656 0 0 0-170.666667-170.666667z m-336.581593 48.705337h336.581593a121.96133 121.96133 0 0 1 121.763341 121.763341v356.38051H48.705535v-356.38051a121.96133 121.96133 0 0 1 121.763341-121.763341h336.581593v89.491106h-117.20959a24.352668 24.352668 0 0 0-16.631091 42.171693L616.93446 280.253674a24.352668 24.352668 0 0 0 33.26218 0l243.724672-227.48956a24.352668 24.352668 0 0 0-16.631091-42.171693h-117.803557z m483.29157 673.163186H24.352866A24.352668 24.352668 0 0 0 0.000198 618.023202V725.333333A170.666667 170.666667 0 0 0 170.666865 896h925.79737A170.864656 170.864656 0 0 0 1267.130902 725.333333v-107.310131a24.352668 24.352668 0 0 0-24.352668-24.352668zM48.705535 641.583913h1169.72003V725.333333a121.96133 121.96133 0 0 1-121.763341 121.763341H170.666865a121.96133 121.96133 0 0 1-121.763341-121.763341z"  horiz-adv-x="1267" />

    
    <glyph glyph-name="geren" unicode="&#58936;" d="M806.79784 222.24a19.52 19.52 0 0 1-4.64 6.72 426.88 426.88 0 0 1-174.4 99.36 295.36 295.36 0 1 1-229.92 0 426.72 426.72 0 0 1-176-99.68 19.52 19.52 0 0 1-4.64-6.72A461.44 461.44 0 0 1 80.07784-108.32000000000005a19.68 19.68 0 1 1 39.36 0c-0.16 227.68 176 412.32 392.64 413.44s392.8-185.76 392.8-413.44a19.68 19.68 0 1 1 39.36 0 461.44 461.44 0 0 1-137.44 330.56zM257.03784 600.64a256 256 0 1 0 256-256 256 256 0 0 0-256 256z"  horiz-adv-x="1024" />

    
    <glyph glyph-name="yanzhengma" unicode="&#58937;" d="M317.6 195.04h-78.88a19.68 19.68 0 1 1 0-39.36h78.72a19.68 19.68 0 0 1 0 39.36zM472.64 155.68h78.72a19.68 19.68 0 1 1 0 39.36h-78.72a19.68 19.68 0 1 1 0-39.36zM886.08 682.72H652.64L483.68 888.8A19.68 19.68 0 0 1 453.28 864l174.72-213.44a19.68 19.68 0 0 1 16-7.2h242.08a98.56 98.56 0 0 0 98.4-98.4v-535.04a98.56 98.56 0 0 0-98.4-98.4H137.92a98.56 98.56 0 0 0-98.4 98.4V544.8a98.56 98.56 0 0 0 98.4 98.4H318.4a19.68 19.68 0 1 1 0 39.36H137.92A138.08 138.08 0 0 1 0 544.8v-534.88A138.08 138.08 0 0 1 137.92-128h748.16A138.08 138.08 0 0 1 1024 9.92V544.8a138.08 138.08 0 0 1-137.92 137.92zM317.6 396.8h-78.88a19.68 19.68 0 1 1 0-39.36h78.72a19.68 19.68 0 0 1 0 39.36zM706.4 357.44h78.72a19.68 19.68 0 1 1 0 39.36h-78.72a19.68 19.68 0 0 1 0-39.36zM472.64 357.44h78.72a19.68 19.68 0 1 1 0 39.36h-78.72a19.68 19.68 0 1 1 0-39.36zM706.4 155.68h78.72a19.68 19.68 0 1 1 0 39.36h-78.72a19.68 19.68 0 0 1 0-39.36z"  horiz-adv-x="1024" />

    
    <glyph glyph-name="suo" unicode="&#58938;" d="M512 410.08A134.08 134.08 0 0 1 492.32 144v-129.44a19.68 19.68 0 0 1 39.36 0V144a134.08 134.08 0 0 1-19.68 266.08z m0-228.96a94.72 94.72 0 1 0 94.72 94.72 94.88 94.88 0 0 0-94.72-94.72zM753.44 532.1600000000001v122.4a241.44 241.44 0 0 1-482.72 0v-44.48a19.68 19.68 0 0 1 39.36 0v44.48a202.08 202.08 0 0 0 404 0v-122.4H275.68a138.08 138.08 0 0 1-137.92-137.92v-384A138.08 138.08 0 0 1 275.68-128h472.64a138.08 138.08 0 0 1 137.92 137.92v384a138.08 138.08 0 0 1-132.8 138.24z m93.44-522.24a98.56 98.56 0 0 0-98.4-98.4H275.68a98.56 98.56 0 0 0-98.4 98.4v384a98.56 98.56 0 0 0 98.4 98.4h472.64a98.56 98.56 0 0 0 98.4-98.4z"  horiz-adv-x="1024" />

    
    <glyph glyph-name="jiangli" unicode="&#58940;" d="M738 720V896H129.52A56.16 56.16 0 0 1 73.52 840v-912A56.16 56.16 0 0 1 129.52-128h764.8a56.16 56.16 0 0 1 56 56V666.72H788.24A52.16 52.16 0 0 0 738 720z m8.16-309.28c-34.08-41.44-94.24-109.92-94.24-109.92s9.92-75.2 16-126.4c2.4-26.08-16-37.44-37.76-27.2l-116.32 59.2-117.6-58.56A25.12 25.12 0 0 0 357.52 176c5.6 51.2 16 126.24 16 126.24s-60.8 68.32-96 109.6c-12.16 15.04-4.32 36.48 19.68 40.32l124.8 24s41.44 76.48 67.68 123.2c14.4 28.48 24.48 25.12 26.08 24.32 4.48-1.6 11.52-7.04 20.64-24.32 25.92-46.88 66.88-123.36 66.88-123.36l123.2-24a24.96 24.96 0 0 0 19.36-40.32zM807.92 896v-160h142.56L807.92 896z"  horiz-adv-x="1024" />

    
    <glyph glyph-name="tixianjilu" unicode="&#58941;" d="M859.753651 896H164.08381a97.52381 97.52381 0 0 1-97.52381-97.52381v-826.189206a109.876825 109.876825 0 0 1 218.778413 0h4.551111a109.876825 109.876825 0 0 1 218.778413 0h4.551111a109.876825 109.876825 0 0 1 218.778412 0h4.551111a109.876825 109.876825 0 0 1 218.778413 0h1.300318V798.47619a97.52381 97.52381 0 0 1-96.873651 97.52381zM169.285079 594.326349a26.168889 26.168889 0 0 0 26.168889 26.168889h627.565715a26.168889 26.168889 0 0 0 26.168888-26.168889v-48.761905a26.168889 26.168889 0 0 0-26.168888-26.168888H195.453968a26.168889 26.168889 0 0 0-26.168889 26.168888zM854.552381 221.460317a25.51873 25.51873 0 0 0-25.51873-25.51873H200.167619a25.51873 25.51873 0 0 0-25.51873 25.51873v46.32381a25.51873 25.51873 0 0 0 25.51873 25.51873h628.866032a25.51873 25.51873 0 0 0 25.51873-25.51873z"  horiz-adv-x="1024" />

    
    <glyph glyph-name="renzhenglianxiren-dan" unicode="&#58944;" d="M512.24 455.84A219.84 219.84 0 1 1 292.56 675.6800000000001a220 220 0 0 1 219.68-219.84z m0 396.32a176 176 0 1 0-176-176 176.96 176.96 0 0 0 176 176zM590.64 453.12a21.44 21.44 0 0 1-18.72-6.08l-59.68-60.16-60.8 60.32a21.44 21.44 0 0 1-19.2 6.08C222.32 419.68 110.32 254.88 108.08-23.519999999999982c0-18.88 21.28-27.68 23.84-28.64a1099.36 1099.36 0 0 1 393.12-74.4 997.44 997.44 0 0 1 365.76 68.32 37.76 37.76 0 0 1 23.52 31.04c-2.08 280.8-114.08 446.88-323.68 480.32zM512.24 288l56.64-170.4-56.64-57.12-56.64 56.64zM152.08-12.960000000000036c4.48 246.4 97.44 388.16 276.8 421.6l58.56-58.56-77.28-231.84a21.6 21.6 0 0 1 6.08-22.24l80-81.28a21.6 21.6 0 0 1 16-6.4 20.64 20.64 0 0 1 15.2 6.24L608.24 96a21.6 21.6 0 0 1 5.28 22.08l-76.96 232.64 57.92 57.92c221.76-41.76 273.76-253.28 276.96-428.16-130.4-51.04-393.44-116.16-719.36 6.56zM691.6 678.4A178.24 178.24 0 1 1 343.76 624a176 176 0 0 1 254.4-101.76 178.24 178.24 0 0 1 93.44 156.16zM596.08 408.64l-57.92-57.92 77.6-232.64a21.6 21.6 0 0 0-5.28-22.08l-82.24-81.44a20.64 20.64 0 0 0-15.2-6.24 21.6 21.6 0 0 0-16 6.4L416.24 96a21.6 21.6 0 0 0-5.28 22.08l77.28 231.68-58.56 58.56c-179.36-33.44-272-175.2-276.8-421.6 325.92-122.72 588.96-57.6 720-6.56-3.2 175.2-54.88 386.72-276.8 428.48zM568.88 116.96000000000004l-56.64 170.4-56.8-170.24 56.8-56.64 56.64 56.48zM455.44 117.12l56.8-56.64 56.64 56.48-56.64 170.4-56.8-170.24z"  horiz-adv-x="1024" />

    
    <glyph glyph-name="renzhengtongguo" unicode="&#58945;" d="M512 896a512 512 0 1 1 512-512A512 512 0 0 1 512 896z m0-969.12A457.12 457.12 0 1 0 969.12 384 457.6 457.6 0 0 0 512-73.12zM512 841.12A457.12 457.12 0 1 1 969.12 384 457.6 457.6 0 0 1 512 841.12z m-125.76-743.84L158.72 320l40.16 58.88 187.36-135.04 439.84 362.24L865.28 576zM826.08 606.08L386.24 244.64l-187.36 135.04-40.16-58.88 227.52-223.52 479.04 478.24-39.2 30.56z"  horiz-adv-x="1024" />

    
    <glyph glyph-name="renzhenglianxiren-shen" unicode="&#58946;" d="M596.08 408.64l-57.92-57.92 77.6-232.64a21.6 21.6 0 0 0-5.28-22.08l-82.24-81.44a20.64 20.64 0 0 0-15.2-6.24 21.6 21.6 0 0 0-16 6.4l-80.8 81.44a21.6 21.6 0 0 0-5.28 22.08l77.28 231.68-58.56 58.56C251.12 375.20000000000005 158 233.44000000000005 153.68-13.600000000000023c325.92-122.72 588.96-57.6 720-6.56-4 175.52-55.68 387.04-277.6 428.8zM590.64 453.12a21.44 21.44 0 0 1-18.72-6.08l-59.68-60.64-60.8 60.8a21.44 21.44 0 0 1-19.2 6.08C222.32 419.68 110.32 254.88 108.08-23.519999999999982c0-18.88 21.28-27.68 23.84-28.64a1099.36 1099.36 0 0 1 393.12-74.4 997.44 997.44 0 0 1 365.76 68.32 37.76 37.76 0 0 1 23.52 31.04c-2.08 280.8-114.08 446.88-323.68 480.32z m-78.4-165.76l56.64-170.4-56.64-56.48-56.64 56.64zM152.08-13.600000000000023C156.56 232.79999999999995 249.52 374.55999999999995 428.88 408l58.56-58.56-77.28-231.2a21.6 21.6 0 0 1 6.08-22.08l80-81.44a21.6 21.6 0 0 1 16-6.4 20.64 20.64 0 0 1 15.2 6.24l80.8 81.28a21.6 21.6 0 0 1 5.28 22.08l-76.96 232.8 57.92 57.92c221.76-41.76 273.76-253.28 276.96-428.16-130.4-51.04-393.44-116.16-719.36 5.92zM334.96 678.4A178.24 178.24 0 1 1 513.2 856.64 178.24 178.24 0 0 1 334.96 678.4z m0 0M512.24 499.2a176 176 0 1 1-176 176 176 176 0 0 1 176-176zM568.88 116.96000000000004l-56.64 170.4-56.8-170.24 56.8-56.64 56.64 56.48zM512.24 455.84A219.84 219.84 0 1 1 292.56 675.6800000000001a220 220 0 0 1 219.68-219.84z m0 396.32a176 176 0 1 0-176-176 176.96 176.96 0 0 0 176 176zM455.44 117.12l56.8-56.64 56.64 56.48-56.64 170.4-56.8-170.24z"  horiz-adv-x="1024" />

    
    <glyph glyph-name="shenfenzhengxinxi-shen" unicode="&#58947;" d="M628.17913 421.409899h-1.53589 2.852367zM191.547461 71.446325h155.344332a386.166702 386.166702 0 0 0 206.686951 318.806943c-8.776516 0-17.772445 1.316477-26.768373 1.316477-175.749732 0-319.684594-140.643668-335.26291-320.12342zM1326.350975 844.876795H77.891579A29.620741 29.620741 0 0 1 48.270838 815.03664v-861.853867a29.620741 29.620741 0 0 1 29.620741-29.840155h1248.239983a29.620741 29.620741 0 0 1 29.620741 29.620742V815.03664a29.620741 29.620741 0 0 1-29.401328 29.840155zM892.132848 25.589028999999982H160.829655V84.17227300000002h1.097065a377.170774 377.170774 0 0 0 266.367259 337.237626 175.530319 175.530319 0 1 0 197.471609 0H629.056782l1.097064-1.53589a369.710735 369.710735 0 0 0 223.581744-193.302764 385.069638 385.069638 0 0 0 21.94129-54.194986 390.774373 390.774373 0 0 0 16.455968-87.76516h1.097064z m322.098136 292.696808h-175.53032a29.181916 29.181916 0 0 0 0 58.363831h175.53032a29.181916 29.181916 0 0 0 0-58.363831z m0 146.128991h-351.060639a29.181916 29.181916 0 0 0 0 58.363831h351.060639a29.181916 29.181916 0 0 0 0-58.363831z m0 146.348403h-351.060639a29.181916 29.181916 0 0 0 0 58.363831h351.060639a29.181916 29.181916 0 0 0 0-58.363831zM526.590958 696.334262a128.356546 128.356546 0 1 1 128.356546-128.356546A128.356546 128.356546 0 0 1 526.590958 696.334262zM347.111206 71.446325h514.742662a344.258839 344.258839 0 0 1-308.275124 318.806943 386.166702 386.166702 0 0 1-206.467538-318.806943zM1345.878723 896H58.583244A58.583244 58.583244 0 0 1 0 837.416756v-906.614099a58.583244 58.583244 0 0 1 58.583244-58.583244h1287.076066A58.583244 58.583244 0 0 1 1404.242554-69.19734300000005V837.416756A58.363831 58.363831 0 0 1 1345.878723 896z m9.87358-943.475466a29.620741 29.620741 0 0 0-29.620741-29.181916H77.891579a29.620741 29.620741 0 0 0-29.620741 29.840155V815.03664a29.620741 29.620741 0 0 0 29.620741 29.840155h1248.459396a29.620741 29.620741 0 0 0 29.620741-29.620742zM874.360403 172.376259a385.069638 385.069638 0 0 1-21.94129 54.194986 369.710735 369.710735 0 0 1-223.581744 193.302764H624.229698a175.530319 175.530319 0 1 1-197.471609 0A377.170774 377.170774 0 0 1 161.92672 84.17227300000002h-1.097065v-58.583244h731.303193V84.17227300000002h-1.316478a390.774373 390.774373 0 0 1-16.455967 88.203986z m-475.906578 394.943218A128.356546 128.356546 0 1 0 526.590958 439.840583a128.356546 128.356546 0 0 0-128.137133 128.356546z m-51.342619-495.873152H191.547461C207.125777 250.92607699999996 351.060639 391.569745 526.590958 391.569745c8.995929 0 17.991858 0 26.768373-1.316477a344.258839 344.258839 0 0 0 308.494537-318.806943zM1214.230984 669.346475h-351.060639a29.181916 29.181916 0 0 1 0-58.363831h351.060639a29.181916 29.181916 0 0 1 0 58.363831zM1214.230984 376.86908100000005h-175.53032a29.181916 29.181916 0 0 1 0-58.363831h175.53032a29.181916 29.181916 0 0 1 0 58.363831zM1214.230984 522.998072h-351.060639a29.181916 29.181916 0 0 1 0-58.363832h351.060639a29.181916 29.181916 0 0 1 0 58.363832z"  horiz-adv-x="1404" />

    
    <glyph glyph-name="yunyingshang-dan" unicode="&#58948;" d="M745.358702-79.03978700000005c0 10.879976 8.95998 28.959937 19.839956 28.959937a51.839887 51.839887 0 0 1 57.279875 57.279874V789.758312a51.999886 51.999886 0 0 1-57.279875 57.279875H257.839768a51.999886 51.999886 0 0 1-57.279875-57.279875v-782.558288a51.999886 51.999886 0 0 1 57.279875-57.279874h307.039328c4.47999 0 84.159816 0 137.759699-31.99993a31.99993 31.99993 0 0 0 8.799981-31.99993l55.359879 14.399968h-1.599997a19.999956 19.999956 0 0 0-19.839956 20.639955zM428.079396 821.758242h167.199634a22.239951 22.239951 0 0 0 0-44.319903H428.079396a22.239951 22.239951 0 0 0 0 44.319903z m83.519817-831.99818a79.999825 79.999825 0 1 0 79.999825 79.999825 79.999825 79.999825 0 0 0-79.999825-80.639823z m-207.999545 228.319501a44.479903 44.479903 0 0 0-49.599892 49.599891v406.399111a44.479903 44.479903 0 0 0 49.599892 49.599892h415.99909a44.479903 44.479903 0 0 0 49.599891-49.599892v-406.239111a44.479903 44.479903 0 0 0-49.599891-49.599891zM511.599213 106.07980799999996a36.39992 36.39992 0 1 1 0-72.799841 36.39992 36.39992 0 0 1 0 72.799841zM313.039647 262.39946599999996H710.158779c10.559977 0 14.559968 3.999991 14.559968 14.559968V664.958585c0 10.559977-3.999991 14.559968-14.559968 14.559969H313.039647c-10.559977 0-14.559968-3.999991-14.559968-14.559969v-389.119148c0.16-10.559977 4.159991-13.439971 14.559968-13.439971zM769.03865 267.83945400000005V674.078565a44.479903 44.479903 0 0 1-49.599892 49.599892H303.599668a44.479903 44.479903 0 0 1-49.599892-49.599892v-406.239111a44.479903 44.479903 0 0 1 49.599892-49.599891h415.99909a44.479903 44.479903 0 0 1 49.439892 49.599891z m-455.999003-5.279988c-10.559977 0-14.559968 2.719994-14.559968 13.279971V664.958585c0 10.559977 3.839992 14.559968 14.559968 14.559969H710.158779c10.559977 0 14.559968-3.839992 14.559968-14.559969v-387.999151c0-10.559977-3.839992-14.559968-14.559968-14.559968zM595.27903 777.438339a22.239951 22.239951 0 0 1 0 44.319903H428.079396a22.239951 22.239951 0 0 1 0-44.319903zM765.358658 895.99808H257.839768A106.239768 106.239768 0 0 1 151.76 789.758312v-782.558288a106.239768 106.239768 0 0 1 106.239768-106.239767h307.199328s72.799841 0 117.279743-26.239943a20.159956 20.159956 0 0 1 10.079978-2.719994 19.679957 19.679957 0 0 1 17.119963 9.759979 18.559959 18.559959 0 0 1 1.919995 4.959989 31.99993 31.99993 0 0 1-8.79998 31.99993c-53.599883 31.99993-133.279708 31.99993-137.759699 31.99993H257.839768a51.999886 51.999886 0 0 0-57.279875 57.279874V789.758312a51.999886 51.999886 0 0 0 57.279875 57.279875h507.51889a51.999886 51.999886 0 0 0 57.279874-57.279875v-782.558288a51.839887 51.839887 0 0 0-57.279874-57.279874c-10.879976 0-19.839957-18.07996-19.839957-28.959937a19.999956 19.999956 0 0 1 19.839957-19.839957h2.239995a106.239768 106.239768 0 0 1 104.639771 106.079768V789.758312A106.239768 106.239768 0 0 1 765.358658 895.99808zM431.599388 69.75988700000005a79.999825 79.999825 0 1 1 79.999825 79.999825 79.999825 79.999825 0 0 1-79.999825-79.999825z m117.119744 0a33.599927 33.599927 0 0 0-37.119919-36.31992 36.39992 36.39992 0 1 0 0 72.799841 33.599927 33.599927 0 0 0 36.47992-36.479921z"  horiz-adv-x="1024" />

    
    <glyph glyph-name="shenfenzhengxinxi-dan" unicode="&#58949;" d="M628.17913 421.409899h-1.53589 2.852367zM191.547461 71.446325h155.344332a386.166702 386.166702 0 0 0 206.686951 318.806943c-8.776516 0-17.772445 1.316477-26.768373 1.316477-175.749732 0-319.684594-140.643668-335.26291-320.12342zM1326.350975 844.876795H77.891579A29.620741 29.620741 0 0 1 48.270838 815.03664v-861.853867a29.620741 29.620741 0 0 1 29.620741-29.840155h1248.239983a29.620741 29.620741 0 0 1 29.620741 29.620742V815.03664a29.620741 29.620741 0 0 1-29.401328 29.840155zM892.132848 25.589028999999982H160.829655V84.17227300000002h1.097065a377.170774 377.170774 0 0 0 266.367259 337.237626 175.530319 175.530319 0 1 0 197.471609 0H629.056782l1.097064-1.53589a369.710735 369.710735 0 0 0 223.581744-193.302764 385.069638 385.069638 0 0 0 21.94129-54.194986 390.774373 390.774373 0 0 0 16.455968-87.76516h1.097064z m322.098136 292.696808h-175.53032a29.181916 29.181916 0 0 0 0 58.363831h175.53032a29.181916 29.181916 0 0 0 0-58.363831z m0 146.128991h-351.060639a29.181916 29.181916 0 0 0 0 58.363831h351.060639a29.181916 29.181916 0 0 0 0-58.363831z m0 146.348403h-351.060639a29.181916 29.181916 0 0 0 0 58.363831h351.060639a29.181916 29.181916 0 0 0 0-58.363831zM526.590958 696.334262a128.356546 128.356546 0 1 1 128.356546-128.356546A128.356546 128.356546 0 0 1 526.590958 696.334262zM347.111206 71.446325h514.742662a344.258839 344.258839 0 0 1-308.275124 318.806943 386.166702 386.166702 0 0 1-206.467538-318.806943zM1345.878723 896H58.583244A58.583244 58.583244 0 0 1 0 837.416756v-906.614099a58.583244 58.583244 0 0 1 58.583244-58.583244h1287.076066A58.583244 58.583244 0 0 1 1404.242554-69.19734300000005V837.416756A58.363831 58.363831 0 0 1 1345.878723 896z m9.87358-943.475466a29.620741 29.620741 0 0 0-29.620741-29.181916H77.891579a29.620741 29.620741 0 0 0-29.620741 29.840155V815.03664a29.620741 29.620741 0 0 0 29.620741 29.840155h1248.459396a29.620741 29.620741 0 0 0 29.620741-29.620742zM874.360403 172.376259a385.069638 385.069638 0 0 1-21.94129 54.194986 369.710735 369.710735 0 0 1-223.581744 193.302764H624.229698a175.530319 175.530319 0 1 1-197.471609 0A377.170774 377.170774 0 0 1 161.92672 84.17227300000002h-1.097065v-58.583244h731.303193V84.17227300000002h-1.316478a390.774373 390.774373 0 0 1-16.455967 88.203986z m-475.906578 394.943218A128.356546 128.356546 0 1 0 526.590958 439.840583a128.356546 128.356546 0 0 0-128.137133 128.356546z m-51.342619-495.873152H191.547461C207.125777 250.92607699999996 351.060639 391.569745 526.590958 391.569745c8.995929 0 17.991858 0 26.768373-1.316477a344.258839 344.258839 0 0 0 308.494537-318.806943zM1214.230984 669.346475h-351.060639a29.181916 29.181916 0 0 1 0-58.363831h351.060639a29.181916 29.181916 0 0 1 0 58.363831zM1214.230984 376.86908100000005h-175.53032a29.181916 29.181916 0 0 1 0-58.363831h175.53032a29.181916 29.181916 0 0 1 0 58.363831zM1214.230984 522.998072h-351.060639a29.181916 29.181916 0 0 1 0-58.363832h351.060639a29.181916 29.181916 0 0 1 0 58.363832z"  horiz-adv-x="1404" />

    
    <glyph glyph-name="zhimafen-dan" unicode="&#58950;" d="M956.352339 405.793625c-17.438804 155.9893-108.472559 302.059281-260.622123 421.571083-86.394074 71.515095-166.068609 86.394074-266.861695 47.996708-33.757684-12.799122-104.152856-69.915204-123.991495-129.591111l-37.917399-31.997805C84.892115 563.5428039999999 57.054025 401.313932 65.853421 292.041428 78.812532 131.25245700000005 178.805673-7.937995999999998 271.919286-63.93415500000003a397.892707 397.892707 0 0 1 223.984636-63.99561 461.088372 461.088372 0 0 1 355.175638 163.668774 507.165212 507.165212 0 0 1 105.272779 370.054616z m-140.470365-347.656153a415.971467 415.971467 0 0 0-321.417953-147.189904A351.975857 351.975857 0 0 0 295.437673-31.93634899999995c-143.990123 84.794184-334.857031 427.650666 0 705.391614-26.398189-134.870749 63.99561-218.864987 93.59358-247.023056a478.687165 478.687165 0 0 1-117.111967-116.312021c-59.19594-98.873218 0-179.667676 12.959111-198.066414a385.253574 385.253574 0 0 1 35.037597-29.757959 177.267841 177.267841 0 0 1 96.95335-28.158069h7.359495A167.188532 167.188532 0 0 1 578.138282 224.04609200000004c0 105.272779-69.595226 147.82986-133.590837 214.705272l-8.479418 12.799122a303.979149 303.979149 0 0 0-91.99369 258.382277c0 43.517015 70.395171 106.872669 100.473108 118.23189a234.86389 234.86389 0 0 0 83.354283 16.47887c47.996708 0 92.473657-19.198683 139.350441-57.916028 344.296383-269.26153 263.341936-588.919604 148.629805-728.590023zM415.109464 396.514262l7.679474 5.919594q13.1191-13.1191 26.558178-26.078212c47.996708-46.876785 83.834249-79.994513 84.154228-149.269761a122.711583 122.711583 0 0 0-109.112516-121.911637h-7.359495a135.030738 135.030738 0 0 0-70.075194 19.198683 331.977228 331.977228 0 0 0-27.83809 23.678376c-34.237652 50.556532-37.277443 98.073273-10.079309 143.990123a431.97037 431.97037 0 0 0 106.072724 104.472834zM667.412158 786.727495c-46.876785 38.717344-91.513723 57.916027-139.51043 57.916028a234.86389 234.86389 0 0 1-83.514272-17.118826c-30.077937-11.359221-100.473108-74.554886-100.473108-118.23189a303.979149 303.979149 0 0 1 91.99369-258.382277l8.479418-12.799122c63.99561-66.875413 133.110869-109.592483 133.590837-214.705272a167.188532 167.188532 0 0 0-153.749454-169.1084h-7.359495a177.267841 177.267841 0 0 0-96.95335 27.998079A385.253574 385.253574 0 0 0 284.878397 112.05377399999998c-12.959111 18.398738-72.155051 99.193196-12.959111 198.066414a478.687165 478.687165 0 0 0 117.591934 116.791988c-29.437981 28.158069-119.991769 111.992318-93.59358 247.023056-334.857031-277.740949-143.990123-620.597431 0-705.391614a351.975857 351.975857 0 0 1 199.666304-57.59605 415.971467 415.971467 0 0 1 320.29803 147.189904c114.712131 139.670419 195.666578 459.328493-148.469816 728.590023zM318.95606 147.89131599999996a331.977228 331.977228 0 0 1 27.83809-23.678376 135.030738 135.030738 0 0 1 70.075194-19.198683h7.359495a122.711583 122.711583 0 0 1 109.112515 121.911637c0 68.635292-35.517564 102.552966-84.154227 149.269761q-13.439078 12.799122-26.558178 26.078212l-7.679474-5.919594a431.97037 431.97037 0 0 1-106.232713-104.952801c-27.038145-45.436883-23.998354-92.953624 10.239298-143.510156z"  horiz-adv-x="1024" />

    
    <glyph glyph-name="yunyingshang-shen" unicode="&#58951;" d="M745.358702-79.03978700000005c0 10.879976 8.95998 28.959937 19.839956 28.959937a51.839887 51.839887 0 0 1 57.279875 57.279874V789.758312a51.999886 51.999886 0 0 1-57.279875 57.279875H257.839768a51.999886 51.999886 0 0 1-57.279875-57.279875v-782.558288a51.999886 51.999886 0 0 1 57.279875-57.279874h307.039328c4.47999 0 84.159816 0 137.759699-31.99993a31.99993 31.99993 0 0 0 8.799981-31.99993l55.359879 14.399968h-1.599997a19.999956 19.999956 0 0 0-19.839956 20.639955zM428.079396 821.758242h167.199634a22.239951 22.239951 0 0 0 0-44.319903H428.079396a22.239951 22.239951 0 0 0 0 44.319903z m83.519817-831.99818a79.999825 79.999825 0 1 0 79.999825 79.999825 79.999825 79.999825 0 0 0-79.999825-80.639823z m-207.999545 228.319501a44.479903 44.479903 0 0 0-49.599892 49.599891v406.399111a44.479903 44.479903 0 0 0 49.599892 49.599892h415.99909a44.479903 44.479903 0 0 0 49.599891-49.599892v-406.239111a44.479903 44.479903 0 0 0-49.599891-49.599891zM511.599213 106.07980799999996a36.39992 36.39992 0 1 1 0-72.799841 36.39992 36.39992 0 0 1 0 72.799841zM313.039647 262.39946599999996H710.158779c10.559977 0 14.559968 3.999991 14.559968 14.559968V664.958585c0 10.559977-3.999991 14.559968-14.559968 14.559969H313.039647c-10.559977 0-14.559968-3.999991-14.559968-14.559969v-389.119148c0.16-10.559977 4.159991-13.439971 14.559968-13.439971zM719.598758 723.678457h-415.99909a44.479903 44.479903 0 0 1-49.599892-49.599892v-406.239111a44.479903 44.479903 0 0 1 49.599892-49.599891h415.99909a44.479903 44.479903 0 0 1 49.599891 49.599891V674.078565a44.479903 44.479903 0 0 1-49.599891 49.599892z m5.279988-446.719023c0-10.559977-3.839992-14.559968-14.559968-14.559968H313.039647c-10.559977 0-14.559968 2.719994-14.559968 13.279971V664.958585c0 10.559977 3.839992 14.559968 14.559968 14.559969H710.158779c10.559977 0 14.559968-3.839992 14.559968-14.559969zM615.118986 799.99829a22.079952 22.079952 0 0 1-19.839956 22.079952H428.079396a22.239951 22.239951 0 0 1 0-44.319903h167.199634A22.079952 22.079952 0 0 1 615.118986 799.99829zM765.358658 895.99808H257.839768A106.239768 106.239768 0 0 1 151.76 789.758312v-782.558288a106.239768 106.239768 0 0 1 106.239768-106.239767h307.199328s72.799841 0 117.279743-26.239943a20.159956 20.159956 0 0 1 10.079978-2.719994 19.679957 19.679957 0 0 1 17.119963 9.759979 18.559959 18.559959 0 0 1 1.919995 4.959989 31.99993 31.99993 0 0 1-8.79998 31.99993c-53.599883 31.99993-133.279708 31.99993-137.759699 31.99993H257.839768a51.999886 51.999886 0 0 0-57.279875 57.279874V789.758312a51.999886 51.999886 0 0 0 57.279875 57.279875h507.51889a51.999886 51.999886 0 0 0 57.279874-57.279875v-782.558288a51.839887 51.839887 0 0 0-57.279874-57.279874c-10.879976 0-19.839957-18.07996-19.839957-28.959937a19.999956 19.999956 0 0 1 19.839957-19.839957h2.239995a106.239768 106.239768 0 0 1 104.639771 106.079768V789.758312A106.239768 106.239768 0 0 1 765.358658 895.99808zM431.599388 69.75988700000005a79.999825 79.999825 0 1 1 79.999825 79.999825 79.999825 79.999825 0 0 1-79.999825-79.999825z m117.119744 0a33.599927 33.599927 0 0 0-37.119919-36.31992 36.39992 36.39992 0 1 0 0 72.799841 33.599927 33.599927 0 0 0 36.47992-36.479921z"  horiz-adv-x="1024" />

    
    <glyph glyph-name="zhimafen-shen" unicode="&#58952;" d="M956.352339 405.793625c-17.438804 155.9893-108.472559 302.059281-260.622123 421.571083-86.394074 71.515095-166.068609 86.394074-266.861695 47.996708-33.757684-12.799122-104.152856-69.915204-123.991495-129.591111l-37.917399-31.997805C84.892115 563.5428039999999 57.054025 401.313932 65.853421 292.041428 78.812532 131.25245700000005 178.805673-7.937995999999998 271.919286-63.93415500000003a397.892707 397.892707 0 0 1 223.984636-63.99561 461.088372 461.088372 0 0 1 355.175638 163.668774 507.165212 507.165212 0 0 1 105.272779 370.054616z m-140.470365-347.656153a415.971467 415.971467 0 0 0-321.417953-147.189904A351.975857 351.975857 0 0 0 295.437673-31.93634899999995c-143.990123 84.794184-334.857031 427.650666 0 705.391614-26.398189-134.870749 63.99561-218.864987 93.59358-247.023056a478.687165 478.687165 0 0 1-117.111967-116.312021c-59.19594-98.873218 0-179.667676 12.959111-198.066414a385.253574 385.253574 0 0 1 35.037597-29.757959 177.267841 177.267841 0 0 1 96.95335-28.158069h7.359495A167.188532 167.188532 0 0 1 578.138282 224.04609200000004c0 105.272779-69.595226 147.82986-133.590837 214.705272l-8.479418 12.799122a303.979149 303.979149 0 0 0-91.99369 258.382277c0 43.517015 70.395171 106.872669 100.473108 118.23189a234.86389 234.86389 0 0 0 83.354283 16.47887c47.996708 0 92.473657-19.198683 139.350441-57.916028 344.296383-269.26153 263.341936-588.919604 148.629805-728.590023zM415.109464 396.514262l7.679474 5.919594q13.1191-13.1191 26.558178-26.078212c47.996708-46.876785 83.834249-79.994513 84.154228-149.269761a122.711583 122.711583 0 0 0-109.112516-121.911637h-7.359495a135.030738 135.030738 0 0 0-70.075194 19.198683 331.977228 331.977228 0 0 0-27.83809 23.678376c-34.237652 50.556532-37.277443 98.073273-10.079309 143.990123a431.97037 431.97037 0 0 0 106.072724 104.472834zM667.412158 786.727495c-46.876785 38.717344-91.513723 57.916027-139.51043 57.916028a234.86389 234.86389 0 0 1-83.514272-17.118826c-30.077937-11.359221-100.473108-74.554886-100.473108-118.23189a303.979149 303.979149 0 0 1 91.99369-258.382277l8.479418-12.799122c63.99561-66.875413 133.110869-109.592483 133.590837-214.705272a167.188532 167.188532 0 0 0-153.749454-169.1084h-7.359495a177.267841 177.267841 0 0 0-96.95335 27.998079A385.253574 385.253574 0 0 0 284.878397 112.05377399999998c-12.959111 18.398738-72.155051 99.193196-12.959111 198.066414a478.687165 478.687165 0 0 0 117.591934 116.791988c-29.437981 28.158069-119.991769 111.992318-93.59358 247.023056-334.857031-277.740949-143.990123-620.597431 0-705.391614a351.975857 351.975857 0 0 1 199.666304-57.59605 415.971467 415.971467 0 0 1 320.29803 147.189904c114.712131 139.670419 195.666578 459.328493-148.469816 728.590023zM318.95606 147.89131599999996a331.977228 331.977228 0 0 1 27.83809-23.678376 135.030738 135.030738 0 0 1 70.075194-19.198683h7.359495a122.711583 122.711583 0 0 1 109.112515 121.911637c0 68.635292-35.517564 102.552966-84.154227 149.269761q-13.439078 12.799122-26.558178 26.078212l-7.679474-5.919594a431.97037 431.97037 0 0 1-106.232713-104.952801c-27.038145-45.436883-23.998354-92.953624 10.239298-143.510156z"  horiz-adv-x="1024" />

    
    <glyph glyph-name="guanbi" unicode="&#58953;" d="M683.52 555.52a19.68 19.68 0 0 1-27.84 0l-144-144-144 144a19.68 19.68 0 0 1-27.2-27.52l144-144-144-144A19.68 19.68 0 1 1 368 212.48l144 144 144-144A19.68 19.68 0 0 1 683.52 240l-144 144 144 144a19.68 19.68 0 0 1 0 27.52zM512 896a512 512 0 1 1 512-512A512 512 0 0 1 512 896z m0-984.64A472.64 472.64 0 1 0 984.64 384 473.12 473.12 0 0 0 512-88.64z"  horiz-adv-x="1024" />

    
    <glyph glyph-name="biyan" unicode="&#58957;" d="M1057.801126-15.233516000000009A645.7365 645.7365 0 0 0 791.513954-76.56265599999995c-373.909922 0-675.411891 380.240672-734.367 459.375047a1481.395501 1481.395501 0 0 0 291.610172 293.192859 25.718672 25.718672 0 0 1-30.466735 39.567188 1492.078641 1492.078641 0 0 1-313.767797-318.51586 25.323 25.323 0 0 1 0-28.884047C18.37111 347.99326599999995 349.152798-127.60432800000001 791.513954-127.60432800000001a695.986828 695.986828 0 0 1 287.257782 66.077203 25.718672 25.718672 0 0 1-20.97061 46.689281zM582.203532 480.147672a25.323 25.323 0 0 1-32.445094-16.222547 254.812688 254.812688 0 0 1 323.263922-323.263922 25.718672 25.718672 0 1 1-16.222546 48.271969 203.771016 203.771016 0 0 0-258.373735 258.373735 25.718672 25.718672 0 0 1-16.222547 32.840765zM1578.505314 397.056578C1564.656798 417.631516 1233.875111 893.22911 791.513954 893.22911a696.3825 696.3825 0 0 1-287.257781-66.077203 25.718672 25.718672 0 1 1 20.970609-46.689282A645.7365 645.7365 0 0 0 791.513954 842.187438c373.51425 0 675.411891-380.240672 734.367001-459.375047a1481.791173 1481.791173 0 0 0-291.610172-293.19286 25.718672 25.718672 0 1 1 30.466734-39.567187 1492.078641 1492.078641 0 0 1 313.767797 319.702875 25.323 25.323 0 0 1 0 27.301359zM1000.824376 285.47711000000004a25.323 25.323 0 0 1 32.445094 16.222546 254.812688 254.812688 0 0 1-323.263922 323.263922 25.718672 25.718672 0 1 1 16.222547-48.271968 203.771016 203.771016 0 0 0 258.373734-258.373735 25.718672 25.718672 0 0 1 16.222547-32.840765zM324.621141 885.711344a25.718672 25.718672 0 1 1-36.00614-36.00614L1258.406767-120.08656199999996a25.718672 25.718672 0 0 1 36.006141 36.00614z"  horiz-adv-x="1586" />

    
    <glyph glyph-name="zhengkai" unicode="&#58958;" d="M1582.787794 398.481209C1568.901703 419.111972 1237.222509 896 793.661099 896S18.420494 419.111972 4.534404 398.481209a25.391709 25.391709 0 0 1 0-28.962418C18.420494 349.284773 350.099688-127.603255 793.661099-127.603255s775.240604 476.094537 789.126695 497.518792a25.391709 25.391709 0 0 1 0 28.565672zM793.661099-76.423092c-374.527702 0-677.244479 381.272375-736.359551 460.621465C116.41662 463.547462 419.133396 844.819837 793.661099 844.819837S1470.905578 463.547462 1530.020649 384.198373c-59.115072-79.34909-361.831848-460.621465-736.35955-460.621465zM793.661099 640.099186a255.900814 255.900814 0 1 1 255.900813-255.900813A256.297559 256.297559 0 0 1 793.661099 640.099186z m0-460.621464a204.720651 204.720651 0 1 0 204.720651 204.720651A205.117396 205.117396 0 0 0 793.661099 179.477722z"  horiz-adv-x="1587" />

    
    <glyph glyph-name="xinxi" unicode="&#58955;" d="M512 896a512 512 0 1 1 512-512A512 512 0 0 1 512 896z m0-928a416 416 0 1 0 416 416 416 416 0 0 0-416-416zM447.84 675.84h128v-140.48h-128zM447.84 481.76h128v-389.6h-128z"  horiz-adv-x="1024" />

    
    <glyph glyph-name="jiekuanjine" unicode="&#58959;" d="M897.021745 503.086155H126.414533a61.727498 61.727498 0 0 1-61.445637-61.445638v-108.798238h893.498486v108.798238a61.727498 61.727498 0 0 1-61.445637 61.445638zM959.031104 549.875034H64.968896A46.225158 46.225158 0 0 1 18.743738 503.649876v-584.860996a46.225158 46.225158 0 0 1 46.225158-46.225159h894.062208A46.225158 46.225158 0 0 1 1005.256262-81.21112V503.086155a46.78888 46.78888 0 0 1-46.225158 46.788879z m-909.564547-217.032755v180.672722z m15.7842 108.798238a61.727498 61.727498 0 0 0 61.445637 61.445638h770.607212a61.727498 61.727498 0 0 0 61.445637-61.445638v-132.192678 23.39444H65.250757z m832.33471-522.851637H126.414533a61.727498 61.727498 0 0 0-61.445637 61.445637V286.617121h893.498486v-307.228186a61.727498 61.727498 0 0 0-60.881915-60.600055zM133.461051 98.61602h308.355629v-46.225158H133.461051zM139.098266 212.20589h308.355629v-46.225158H139.098266zM575.982384 212.20589h308.355629v-46.225158H575.982384zM380.652904 572.142031h79.766584L357.258464 755.069639h60.881916l93.85962-169.116432 89.067988 169.116432h56.372144L554.279108 572.142031h286.088632a328.36774 328.36774 0 0 1-656.453619 0h197.302504z"  horiz-adv-x="1024" />

    
    <glyph glyph-name="jiekuanyinhangqia" unicode="&#58960;" d="M1327.833541 825.261756H162.783188a93.323346 93.323346 0 0 1-92.897212-93.323346v-164.487723h1350.844777V731.93841a93.323346 93.323346 0 0 1-92.897212 93.323346zM1421.583021 896H69.885976A69.885976 69.885976 0 0 1 0 826.114024v-884.228048a69.885976 69.885976 0 0 1 69.885976-69.885976h1351.697045A69.885976 69.885976 0 0 1 1491.468997-58.114024V825.261756A70.738244 70.738244 0 0 1 1421.583021 896zM46.448606 567.876821V841.028714z m23.863504 164.487723a93.323346 93.323346 0 0 0 92.897212 92.897212h1165.050353a93.323346 93.323346 0 0 0 92.897212-92.897212v-199.856845 35.369122H70.31211z m1258.373699-790.478568H162.783188a93.323346 93.323346 0 0 0-92.897212 92.897212V497.564711h1350.844777v-464.486059a93.323346 93.323346 0 0 0-92.044944-91.192676zM173.436538 213.759467h466.190595v-69.885976H173.436538zM181.959218 385.491469h466.190595v-69.885976H181.959218zM842.466916 385.491469h466.190595v-69.885976H842.466916z"  horiz-adv-x="1491" />

    
    <glyph glyph-name="xingyeyinhang" unicode="&#59489;" d="M1572.352 401.481143c0 201.654857-273.188571 365.129143-610.157714 365.129143-269.677714 0-498.541714-104.886857-579.072-250.075429v0.073143a89.819429 89.819429 0 0 1-11.556572-43.52c0-36.059429 22.820571-68.388571 58.514286-89.307429l309.248-178.614857c16.091429-8.777143 35.035429-13.897143 55.588571-13.897143 20.772571 0 39.789714 5.12 55.734858 13.824l293.449142 169.472c19.821714 11.483429 32.256 29.330286 32.256 49.371429 0 19.456-11.776 36.571429-30.573714 48.274286l-108.982857 62.976-241.810286-139.483429-182.857143 105.618286c70.656 63.634286 202.386286 106.349714 353.133715 106.349714 225.353143 0 408.283429-95.597714 408.283428-213.650286-4.900571-182.930286-273.115429-324.461714-598.893714-315.977142-326.144 8.557714-586.313143 163.986286-581.558857 346.770285h-0.073143C195.437714 665.9657139999999 511.634286 858.697143 899.145143 854.893714c34.596571-0.438857 68.534857-2.194286 101.595428-5.558857C921.088 878.592 821.833143 896 713.581714 896 627.419429 896 546.523429 884.882286 476.964571 865.426286 196.461714 788.48 0 609.645714 0 401.481143c0-278.674286 351.963429-504.685714 786.212571-504.685714s786.285714 226.011429 786.285715 504.685714h-0.146286z"  horiz-adv-x="1609" />

    
    <glyph glyph-name="youzhengchuxuyinhang" unicode="&#59490;" d="M621.406316 896l-31.205053-149.288421H343.740632l-62.517895-295.01979H57.290105l-26.085052-119.646315-5.173895-29.642106L0 182.595368h225.657263l-62.464-295.019789h538.085053l26.031158 119.646316 36.432842 175.373473h164.917895l24.252631 119.808H720.410947l-24.252631-119.808-38.265263-175.373473h-400.976842l5.227789 27.917473h357.537684l62.517895 296.906106h276.102737l25.923368 119.646315H638.814316l-24.306527-119.646315-38.157473-177.25979H288.229053l5.173894 27.809684h246.514527l24.252631 119.808 6.898527 29.642106 24.360421 119.646315H348.914526l7.006316 27.75579h357.429895l31.258947 147.509895h276.102737l25.923368 119.808h-345.357473l-26.031158-119.808-5.12-27.75579h-289.953684l6.952421 27.75579h246.460631l24.252632 119.808 5.281684 29.426526h388.850526L1077.894737 896h-456.488421zM501.76 332.045474l-5.335579-29.642106H317.601684l7.006316 29.642106H501.76z m-244.843789 0l-7.006316-29.642106H93.776842l5.22779 29.642106h157.911579z"  horiz-adv-x="1077" />

    
    <glyph glyph-name="huaxiayinhang" unicode="&#59491;" d="M382.8 706.4c44.4 36.8 96.7 67.6 162.7 85.3 39.3 10.5 79.3 15.3 118 14.6 2.3-2.5 12.6-35.5 25.2-41.7 12.5-6.2 60.8 8.7 84.6-23.6 10.5-20.5-4.4-29.6 8.9-42.6 89.2-52 105.9 12.4 141.3-47.9 15.7-50.2-61.1-40.3-81.2-97.6-6 9.7-26.7 20.6-34 25.7-62.8 39.2-136.6 53.8-213.7 33.1-147.7-39.6-235.9-189-196.3-336.6C438 127.39999999999998 587.8 41.89999999999998 735.5 81.5c43.6 11.7 96.6 41.2 127.9 69.4 26.4 20 48.7 53.2 72.8 63.9 0 0-16-19-19.8-33.9 0 0.1 7-2.1 20.5 11.2 13.5 13.3 23.7 38.5 23.1 38.7-1.2-9.1 4.4-32.2-20.7-63.7-15.2-21.5-31.1-36.2-30.8-36.5 4.5 1.8 13.7 8 26.1 16.4 10.8 7.9 25.3 34.3 25.3 34.3-0.8-12.7-18-62.1-39.5-87.5-33.5-45.4-74.2-75.4-74.2-75.4-21.1-16.6-42.3-30.2-81.9-42.1-225.2-60.5-455.7 73.6-516.7 296.7-14.6 52-14.6 111.7-10.1 169.1 0.6-0.6-40.8-25.1-88.9-24.7-50.7 0.4-84.6 41.2-84.6 87.1 0 43.1 50.6 102.3 50.7 99.5 0.6-2-2.8-49.6 43.6-51 94.4 9.5 139.9 83.5 213.7 144.1l10.8 9.3zM586.9 451.3h203.7c23 0 41.7-18.7 41.7-41.7v-127.7c0-23-18.7-41.7-41.7-41.7H586.9c-23 0-41.7 18.7-41.7 41.7V409.6c0 23.1 18.7 41.7 41.7 41.7z"  horiz-adv-x="1024" />

    
    </font>
</defs>
</svg>
