<svg id="图层_1" data-name="图层 1" xmlns="http://www.w3.org/2000/svg" viewBox="0 0 709.71 709.71"><defs><style>.cls-1{fill:#1990fe;}</style></defs><title>箭头(2)</title><path class="cls-1" d="M249.86-105C54.18-105-105,54.23-105,249.86S54.23,604.71,249.86,604.71,604.71,445.48,604.71,249.86,445.58-105,249.86-105Zm-52,545.11a17,17,0,0,1-12.42,5.17,17.24,17.24,0,0,1-12.52-5.22,17.74,17.74,0,0,1,0-25L337.1,249.86,173,84.65a17.87,17.87,0,0,1,0-25.14,17.62,17.62,0,0,1,24.94,0L386.88,249.86Z" transform="translate(105 105)"/><path d="M185.42,445.28" transform="translate(105 105)"/></svg>